<svg width="50" height="50" viewBox="0 0 50 50" fill="none" xmlns="http://www.w3.org/2000/svg">
<path d="M37.5001 4.16663C38.0526 4.16663 38.5825 4.38612 38.9732 4.77682C39.3639 5.16752 39.5834 5.69743 39.5834 6.24996V24.0187C37.785 22.4102 35.5595 21.3565 33.1754 20.9848C30.7914 20.6132 28.3508 20.9395 26.1481 21.9243C23.9454 22.9091 22.0748 24.5104 20.762 26.5349C19.4493 28.5593 18.7505 30.9205 18.7501 33.3333C18.7501 40.0791 24.5001 45.8333 31.2501 45.8333H12.5001C11.9475 45.8333 11.4176 45.6138 11.0269 45.2231C10.6362 44.8324 10.4167 44.3025 10.4167 43.75V6.24996C10.4167 5.69743 10.6362 5.16752 11.0269 4.77682C11.4176 4.38612 11.9475 4.16663 12.5001 4.16663H37.5001ZM31.2501 25C32.7195 24.9998 34.1629 25.3881 35.4339 26.1256C36.7048 26.8632 37.7582 27.9237 38.4871 29.1996C39.216 30.4755 39.5946 31.9215 39.5844 33.3909C39.5743 34.8603 39.1757 36.3009 38.4292 37.5666L43.0334 42.1708L40.0897 45.1187L35.4834 40.5145C34.3795 41.1644 33.1407 41.5511 31.8631 41.6445C30.5855 41.7378 29.3036 41.5354 28.117 41.053C26.9303 40.5705 25.8709 39.821 25.0209 38.8626C24.171 37.9042 23.5534 36.7627 23.2162 35.5269C22.879 34.2911 22.8312 32.9942 23.0766 31.737C23.322 30.4797 23.8539 29.2959 24.6311 28.2776C25.4082 27.2593 26.4097 26.4339 27.5576 25.8654C28.7056 25.297 29.9691 25.0008 31.2501 25ZM31.2501 29.1666C30.145 29.1666 29.0852 29.6056 28.3038 30.387C27.5224 31.1684 27.0834 32.2282 27.0834 33.3333C27.0834 34.4384 27.5224 35.4982 28.3038 36.2796C29.0852 37.061 30.145 37.5 31.2501 37.5C32.3552 37.5 33.415 37.061 34.1964 36.2796C34.9778 35.4982 35.4167 34.4384 35.4167 33.3333C35.4167 32.2282 34.9778 31.1684 34.1964 30.387C33.415 29.6056 32.3552 29.1666 31.2501 29.1666Z" fill="black"/>
</svg>
