<svg width="50" height="50" viewBox="0 0 50 50" fill="none" xmlns="http://www.w3.org/2000/svg">
<path d="M8.33325 4.16675V16.6667H4.16659V4.16675H8.33325ZM4.16659 45.8334V33.3334H8.33325V45.8334H4.16659ZM10.4166 25.0001C10.4166 27.3126 8.56242 29.1667 6.24992 29.1667C5.42583 29.1667 4.62025 28.9224 3.93504 28.4645C3.24984 28.0067 2.71579 27.356 2.40042 26.5946C2.08506 25.8332 2.00254 24.9955 2.16332 24.1872C2.32409 23.379 2.72092 22.6365 3.30364 22.0538C3.88636 21.4711 4.62879 21.0742 5.43704 20.9135C6.2453 20.7527 7.08308 20.8352 7.84443 21.1506C8.60579 21.4659 9.25654 22 9.71438 22.6852C10.1722 23.3704 10.4166 24.176 10.4166 25.0001ZM33.3333 8.33341C42.5416 8.33341 49.9999 15.7917 49.9999 25.0001C49.9999 34.2084 42.5416 41.6667 33.3333 41.6667C25.8333 41.6667 19.4999 36.7084 17.3958 29.8959L12.4999 25.0001L17.3958 20.1042C19.4999 13.2917 25.8333 8.33341 33.3333 8.33341ZM31.2499 27.0834L40.6874 32.8959L42.3541 30.2084L34.3749 25.4167V14.5834H31.2499V27.0834Z" fill="black"/>
</svg>
