<svg width="62" height="62" viewBox="0 0 62 62" fill="none" xmlns="http://www.w3.org/2000/svg">
<g clip-path="url(#clip0_278_121)">
<path d="M56.5927 30.2285C54.5546 27.6421 51.5074 28.3437 47.5844 30.0209C45.7898 23.1998 45.1942 16.3859 45.4699 8.69138C45.8019 5.8735 37.0062 3.27474 26.3903 6.06588C15.8011 8.95663 9.48216 15.6045 11.1786 17.8789C15.2403 24.3651 18.1361 30.6113 20.0013 37.4094C15.7711 37.9192 12.7855 38.8357 12.3131 42.0924C11.0351 48.2558 22.2871 55.6931 38.5215 51.3431C54.7566 46.9929 60.7818 34.9262 56.5927 30.2285ZM20.93 44.6064C20.93 44.6064 20.9946 40.7513 20.3235 38.9018C31.3794 44.5322 41.3028 41.8732 48.0615 31.4695C48.6131 33.3922 50.3878 36.7132 50.3878 36.7132C43.8547 47.4068 31.9353 50.6005 20.93 44.6064Z" fill="black"/>
</g>
<defs>
<clipPath id="clip0_278_121">
<rect width="50" height="50" fill="white" transform="translate(0 12.9409) rotate(-15)"/>
</clipPath>
</defs>
</svg>
