<svg width="52" height="53" viewBox="0 0 52 53" fill="none" xmlns="http://www.w3.org/2000/svg">
<path d="M40.7768 35.7799C40.5559 35.7799 40.3439 35.6921 40.1877 35.5359C40.0314 35.3796 39.9436 35.1677 39.9436 34.9467C39.9436 34.7257 40.0314 34.5137 40.1877 34.3575C40.3439 34.2012 40.5559 34.1134 40.7768 34.1134M40.7768 35.7799C40.9978 35.7799 41.2098 35.6921 41.366 35.5359C41.5223 35.3796 41.6101 35.1677 41.6101 34.9467C41.6101 34.7257 41.5223 34.5137 41.366 34.3575C41.2098 34.2012 40.9978 34.1134 40.7768 34.1134" stroke="black" stroke-width="1.5"/>
<path d="M40.777 24.9476C43.4289 24.9476 45.9722 26.0011 47.8473 27.8763C49.7225 29.7515 50.776 32.2948 50.776 34.9467C50.776 39.213 44.8033 47.339 42.0902 50.8075C41.9344 51.007 41.7351 51.1684 41.5075 51.2794C41.28 51.3903 41.0302 51.448 40.777 51.448C40.5239 51.448 40.274 51.3903 40.0465 51.2794C39.819 51.1684 39.6197 51.007 39.4638 50.8075C36.7508 47.3367 30.7781 39.2152 30.7781 34.9467C30.7781 32.2948 31.8315 29.7515 33.7067 27.8763C35.5819 26.0011 38.1251 24.9476 40.777 24.9476Z" stroke="black" stroke-width="1.5" stroke-linecap="round" stroke-linejoin="round"/>
<path d="M30.778 50.9431C25.9372 51.9318 20.9121 51.4639 16.3371 49.5985C11.7621 47.7332 7.84232 44.5541 5.07283 40.4625C2.30333 36.371 0.808256 31.5506 0.776399 26.6099C0.744542 21.6693 2.17733 16.83 4.89383 12.7031C7.61034 8.57618 11.4888 5.34675 16.0393 3.42257C20.5899 1.49839 25.6086 0.965746 30.4617 1.8919C35.3148 2.81806 39.7846 5.16148 43.3068 8.62625C46.829 12.091 49.2456 16.5218 50.2515 21.3591" stroke="black" stroke-width="1.5" stroke-linecap="round" stroke-linejoin="round"/>
<path d="M19.7614 50.6964C16.3818 45.7391 14.122 36.731 14.122 26.4408C14.122 16.1506 16.3818 7.14474 19.7614 2.18518M0.852295 24.7743H27.4495M5.79177 11.4488H45.772M3.68089 38.102H24.1165M31.8046 2.18518C34.6838 7.04553 36.4363 12.4898 36.9329 18.1171" stroke="black" stroke-width="1.5" stroke-linecap="round" stroke-linejoin="round"/>
</svg>
