<svg width="38" height="38" viewBox="0 0 38 38" fill="none" xmlns="http://www.w3.org/2000/svg">
<g clip-path="url(#clip0_264_293)">
<path d="M27.9396 3.375H10.0604C6.56804 3.3747 3.12373 2.56159 0 1L0 8.125C0 9.43645 1.06355 10.5 2.375 10.5H4.75V15.25H1.1875C0.531406 15.25 0 15.7814 0 16.4375V18.8125C0 19.4686 0.531406 20 1.1875 20H4.75V37.8125C4.75 38.4686 5.28141 39 5.9375 39H8.3125C8.96859 39 9.5 38.4686 9.5 37.8125V20H28.5V37.8125C28.5 38.4686 29.0314 39 29.6875 39H32.0625C32.7186 39 33.25 38.4686 33.25 37.8125V20H36.8125C37.4686 20 38 19.4686 38 18.8125V16.4375C38 15.7814 37.4686 15.25 36.8125 15.25H33.25V10.5H35.625C36.9364 10.5 38 9.43645 38 8.125V1C34.8763 2.56159 31.432 3.3747 27.9396 3.375ZM9.5 10.5H16.625V15.25H9.5V10.5ZM28.5 15.25H21.375V10.5H28.5V15.25Z" fill="#FF3B3B"/>
</g>
<defs>
<clipPath id="clip0_264_293">
<rect width="38" height="38" fill="white"/>
</clipPath>
</defs>
</svg>
