<svg width="20" height="20" viewBox="0 0 20 20" fill="none" xmlns="http://www.w3.org/2000/svg">
<path d="M16.7857 2.67854C16.7857 2.53646 16.8421 2.4002 16.9426 2.29973C17.0431 2.19926 17.1793 2.14282 17.3214 2.14282C17.4635 2.14282 17.5997 2.19926 17.7002 2.29973C17.8007 2.4002 17.8571 2.53646 17.8571 2.67854V17.3214C17.8571 17.4635 17.8007 17.5997 17.7002 17.7002C17.5997 17.8007 17.4635 17.8571 17.3214 17.8571C17.1793 17.8571 17.0431 17.8007 16.9426 17.7002C16.8421 17.5997 16.7857 17.4635 16.7857 17.3214V2.67854ZM2.14282 3.75282C2.14282 2.45568 3.60068 1.69282 4.66639 2.43282L13.5978 8.63282C13.8102 8.78023 13.984 8.97671 14.1043 9.20559C14.2245 9.43447 14.2878 9.68899 14.2887 9.94755C14.2896 10.2061 14.2282 10.4611 14.1095 10.6908C13.9908 10.9205 13.8185 11.1182 13.6071 11.2671L4.67568 17.56C3.61139 18.31 2.14282 17.55 2.14282 16.2464V3.75282Z" fill="white"/>
</svg>
