<svg width="50" height="50" viewBox="0 0 50 50" fill="none" xmlns="http://www.w3.org/2000/svg">
<path d="M37.5001 36.7187C37.4996 36.2516 37.3595 35.7952 37.0978 35.4082C36.8361 35.0212 36.4648 34.7213 36.0314 34.5469V33.1094C36.0333 32.5517 35.9026 32.0015 35.6499 31.5043C35.3972 31.0071 35.0299 30.5772 34.5782 30.25C34.1317 29.93 33.6155 29.7206 33.0722 29.6391C32.5289 29.5576 31.974 29.6063 31.4532 29.7812L30.4532 30.1094C30.1594 30.2113 29.8452 30.2403 29.5377 30.194C29.2302 30.1478 28.9385 30.0276 28.6876 29.8437C28.4779 29.6776 28.2983 29.4768 28.1564 29.25C28.805 28.8261 29.3596 28.2735 29.7858 27.6264C30.2121 26.9793 30.5008 26.2516 30.6341 25.4883C30.7674 24.725 30.7425 23.9424 30.5609 23.1892C30.3792 22.4359 30.0448 21.728 29.5782 21.1094L37.2501 7.82812C37.444 7.43341 37.518 6.99052 37.4629 6.55421C37.4078 6.1179 37.2261 5.7073 36.9402 5.37316C36.6542 5.03903 36.2767 4.79601 35.8541 4.67415C35.4316 4.55229 34.9826 4.55693 34.5626 4.6875C33.2749 4.04446 31.9307 3.52142 30.547 3.125C30.3775 2.8481 30.1501 2.61117 29.8804 2.43047C29.6107 2.24976 29.305 2.12956 28.9845 2.07812C28.6724 2.02694 28.3531 2.04077 28.0466 2.11875C27.74 2.19672 27.4529 2.33715 27.2032 2.53125C26.4845 2.53125 25.7657 2.42187 25.0314 2.42187C24.297 2.42187 23.5782 2.42187 22.8595 2.53125C22.6072 2.33549 22.3169 2.19448 22.0071 2.11723C21.6972 2.03998 21.3747 2.02817 21.0601 2.08258C20.7454 2.13698 20.4456 2.25639 20.1797 2.43318C19.9138 2.60998 19.6876 2.84028 19.5157 3.10937C18.1117 3.49686 16.7506 4.0256 15.4532 4.6875C15.1522 4.59028 14.8342 4.55674 14.5195 4.58902C14.2047 4.6213 13.9002 4.71869 13.6251 4.875C13.353 5.01431 13.1126 5.20837 12.919 5.44498C12.7254 5.6816 12.5828 5.95567 12.5001 6.25C11.3113 7.09409 10.2118 8.05742 9.21886 9.125C8.90291 9.12883 8.59148 9.20058 8.30571 9.33538C8.01994 9.47018 7.76651 9.66487 7.5626 9.90625C7.36555 10.1488 7.22079 10.4294 7.13743 10.7306C7.05407 11.0318 7.03392 11.3469 7.07823 11.6562C6.23014 12.8412 5.50257 14.1079 4.90635 15.4375C4.61157 15.5523 4.34473 15.7288 4.12375 15.9552C3.90277 16.1815 3.73276 16.4525 3.6251 16.75C3.51652 17.0464 3.47154 17.3624 3.49307 17.6774C3.51461 17.9923 3.60218 18.2992 3.7501 18.5781C3.36348 19.9779 3.11232 21.4116 3.0001 22.8594C2.76365 23.069 2.57435 23.3264 2.44472 23.6146C2.31508 23.9028 2.24805 24.2152 2.24805 24.5312C2.24805 24.8473 2.31508 25.1597 2.44472 25.4479C2.57435 25.7361 2.76365 25.9935 3.0001 26.2031C3.1126 27.6516 3.36417 29.0844 3.7501 30.4844C3.52674 30.9049 3.44255 31.3855 3.50965 31.8569C3.57676 32.3283 3.7917 32.7663 4.12354 33.1078C4.34385 33.3344 4.61104 33.5109 4.90479 33.6234C5.5001 34.9562 6.22823 36.2219 7.07667 37.4047C7.03139 37.714 7.05108 38.0294 7.13448 38.3307C7.21788 38.632 7.36315 38.9126 7.56104 39.1547C7.76494 39.3961 8.01838 39.5907 8.30415 39.7255C8.58992 39.8603 8.90135 39.9321 9.21729 39.9359C10.2134 40.9817 11.3127 41.924 12.4985 42.7484C12.5888 43.193 12.8123 43.5996 13.1393 43.9141C13.4663 44.2285 13.8812 44.436 14.329 44.509C14.7768 44.5819 15.2361 44.5168 15.646 44.3223C16.0559 44.1279 16.3968 43.8133 16.6235 43.4203L24.2954 30.1391C25.0782 30.23 25.8714 30.1555 26.6235 29.9203C26.8814 30.3891 27.2392 30.7953 27.6704 31.1078C28.1151 31.4316 28.6306 31.6445 29.1742 31.7287C29.7178 31.813 30.2736 31.7662 30.7954 31.5922L31.811 31.2484C32.1048 31.1552 32.4164 31.1323 32.7207 31.1815C33.0249 31.2307 33.3134 31.3506 33.5628 31.5317C33.8123 31.7127 34.0157 31.9498 34.1568 32.2238C34.2979 32.4978 34.3727 32.8012 34.3751 33.1094V34.4844C33.9142 34.6473 33.5157 34.9503 33.2355 35.351C32.9553 35.7516 32.8075 36.2299 32.8126 36.7187C32.8111 37.0304 32.8726 37.3392 32.9934 37.6265C33.1143 37.9138 33.2919 38.1737 33.5157 38.3906L32.8751 46.2031C32.8687 46.2973 32.8817 46.3917 32.9133 46.4806C32.945 46.5695 32.9946 46.651 33.0591 46.7199C33.1236 46.7887 33.2016 46.8436 33.2882 46.8811C33.3748 46.9185 33.4682 46.9377 33.5626 46.9375H36.6876C36.782 46.9377 36.8754 46.9185 36.962 46.8811C37.0486 46.8436 37.1266 46.7887 37.1911 46.7199C37.2556 46.651 37.3052 46.5695 37.3369 46.4806C37.3685 46.3917 37.3815 46.2973 37.3751 46.2031L36.7345 38.3906C36.9696 38.1791 37.1589 37.9216 37.2906 37.6341C37.4223 37.3465 37.4936 37.035 37.5001 36.7187ZM28.422 17.125C27.9753 16.9065 27.5099 16.7287 27.0314 16.5937L27.2657 15.25C27.9012 15.4208 28.5157 15.65 29.1095 15.9375L28.422 17.125ZM29.0001 5.8125C30.7329 6.18125 32.4064 6.79062 33.9689 7.625L29.8595 14.75C29.1278 14.3837 28.3574 14.1007 27.5626 13.9062L29.0001 5.8125ZM25.0001 5.39062C25.8845 5.39062 26.7647 5.45312 27.6407 5.57812L27.2345 7.92187C26.9842 7.5609 26.6503 7.26592 26.2611 7.06219C25.872 6.85846 25.4393 6.75205 25.0001 6.75205C24.5609 6.75205 24.1282 6.85846 23.7391 7.06219C23.3499 7.26592 23.016 7.5609 22.7657 7.92187L22.3595 5.59375C23.2338 5.46388 24.1162 5.396 25.0001 5.39062ZM25.0001 16.3281C24.754 16.3397 24.5088 16.3658 24.2657 16.4062L24.0157 15.0156C24.6686 14.9212 25.3316 14.9212 25.9845 15.0156L25.7501 16.3594L25.0001 16.3281ZM25.5001 17.7344L25.0001 20.5937L24.5001 17.75H25.0001C25.1668 17.7365 25.3334 17.7312 25.5001 17.7344ZM25.0001 13.5937C24.5927 13.5971 24.1858 13.6232 23.7814 13.6719L23.4376 11.7344C23.8978 12.0494 24.4424 12.2181 25.0001 12.2181C25.5578 12.2181 26.1025 12.0494 26.5626 11.7344L26.2189 13.6719C25.8144 13.6232 25.4075 13.5971 25.0001 13.5937ZM23.1564 17.9844L23.6564 20.8281L22.2032 18.3125C22.5116 18.1771 22.8293 18.0677 23.1564 17.9844ZM21.5157 17.1875L20.8282 15.9844C21.422 15.7031 22.0366 15.4792 22.672 15.3125L22.9064 16.6875C22.4272 16.8125 21.9636 16.9792 21.5157 17.1875ZM21.0001 5.875L22.4376 13.9687C21.6428 14.1632 20.8724 14.4462 20.1407 14.8125L16.0314 7.625C17.5939 6.79062 19.2657 6.18125 21.0001 5.8125V5.875ZM17.5626 21.1562L16.2657 20.6875C16.5116 20.0667 16.8189 19.4781 17.1876 18.9219L18.2501 19.8125C17.9814 20.2187 17.7522 20.6458 17.5626 21.0937V21.1562ZM18.3907 22.9219L21.1251 23.9062H18.2345C18.2605 23.5521 18.3126 23.2031 18.3907 22.8594V22.9219ZM17.1095 22.4531C16.9845 22.9302 16.9011 23.4146 16.8595 23.9062H15.4689C15.5081 23.2197 15.6181 22.539 15.797 21.875L17.1095 22.4531ZM14.9845 20.1562L13.1251 19.4844C13.6345 19.2469 14.0579 18.8594 14.3439 18.375C14.6217 17.9036 14.7472 17.3579 14.7032 16.8125L16.2657 18.0781C15.7624 18.7208 15.3327 19.4179 14.9845 20.1562ZM14.9845 28.9062C15.3178 29.6521 15.7241 30.3552 16.2032 31.0156L14.6407 32.2812C14.6847 31.7358 14.5592 31.1901 14.2814 30.7187C13.995 30.2356 13.5705 29.8492 13.0626 29.6094L14.9845 28.9062ZM15.797 27.1562C15.6243 26.5228 15.5144 25.8738 15.4689 25.2187H16.8439C16.8814 25.7146 16.9595 26.2042 17.0782 26.6875L15.797 27.1562ZM17.5626 27.9687C17.773 28.4187 18.023 28.8458 18.3126 29.25L17.2657 30.1406C16.8787 29.6062 16.5438 29.0359 16.2657 28.4375L17.5626 27.9687ZM18.2032 25.2187H21.1251L18.3751 26.2187C18.3024 25.8883 18.245 25.5546 18.2032 25.2187ZM21.5939 26.5L19.3595 28.375C19.1721 28.0957 19.005 27.8032 18.8595 27.5L21.5939 26.5ZM18.8595 21.5625C19.0053 21.2625 19.1668 20.9708 19.3439 20.6875L21.5939 22.5625L18.8595 21.5625ZM19.172 18.75L18.1251 17.875C18.6022 17.399 19.123 16.9771 19.6876 16.6094L20.3751 17.7969C19.948 18.0823 19.547 18.4 19.172 18.75ZM14.8595 8.32812L18.9532 15.4219C18.2703 15.869 17.6411 16.3932 17.0782 16.9844L10.8282 11.7031C12.0068 10.3944 13.3639 9.25821 14.8595 8.32812ZM9.92198 12.7656L11.7345 14.3281C11.2982 14.365 10.8772 14.5067 10.5075 14.7412C10.1377 14.9757 9.83003 15.2961 9.61065 15.675C9.39126 16.054 9.26665 16.4803 9.2474 16.9177C9.22816 17.3551 9.31485 17.7908 9.5001 18.1875L7.26573 17.3437C7.93022 15.6998 8.82454 14.1584 9.92198 12.7656ZM6.79698 18.625L14.5157 21.4375C14.2776 22.2207 14.1257 23.0276 14.0626 23.8437H5.89073C5.95049 22.0707 6.25547 20.3144 6.79698 18.625ZM6.79698 30.4531C6.25727 28.7681 5.94719 27.0179 5.8751 25.25H14.0626C14.1104 26.0644 14.2466 26.8713 14.4689 27.6562L6.79698 30.4531ZM7.26573 31.7187L9.5001 30.9062C9.31485 31.303 9.22816 31.7386 9.2474 32.176C9.26665 32.6135 9.39126 33.0398 9.61065 33.4187C9.83003 33.7977 10.1377 34.118 10.5075 34.3525C10.8772 34.587 11.2982 34.7287 11.7345 34.7656L9.90635 36.3281C8.81869 34.9202 7.93013 33.3692 7.26573 31.7187ZM14.8439 40.75C13.3478 39.8018 11.9866 38.656 10.797 37.3437L17.047 32.0625C17.6095 32.6531 18.2392 33.1781 18.922 33.625L14.8439 40.75ZM19.6407 32.4375C19.0761 32.075 18.5553 31.6583 18.0782 31.1875L19.1095 30.3125C19.4845 30.6562 19.8855 30.9687 20.3126 31.25L19.6407 32.4375ZM21.0157 30.0625C20.735 29.875 20.4733 29.6605 20.2345 29.4219L22.4689 27.5469L21.0157 30.0625ZM20.3126 19.6406C20.5522 19.401 20.8126 19.1875 21.0939 19L22.547 21.5156L20.3126 19.6406ZM25.0001 26.5625C24.4572 26.5625 23.9366 26.3468 23.5527 25.963C23.1689 25.5791 22.9532 25.0585 22.9532 24.5156C22.9532 23.9728 23.1689 23.4521 23.5527 23.0683C23.9366 22.6844 24.4572 22.4687 25.0001 22.4687C25.543 22.4687 26.0636 22.6844 26.4475 23.0683C26.8313 23.4521 27.047 23.9728 27.047 24.5156C27.047 25.0585 26.8313 25.5791 26.4475 25.963C26.0636 26.3468 25.543 26.5625 25.0001 26.5625ZM26.3439 20.8125L26.8595 17.9375C27.1824 18.0354 27.5001 18.15 27.8126 18.2812L26.3439 20.8125ZM35.9376 45.3125H34.3751V38.9219C34.8782 39.1094 35.4329 39.1094 35.9376 38.9219V45.3125ZM35.1564 37.5C35.0268 37.5002 34.8992 37.4682 34.7851 37.4069C34.671 37.3456 34.5739 37.2568 34.5027 37.1487C34.4314 37.0405 34.3881 36.9163 34.3767 36.7872C34.3654 36.6582 34.3863 36.5283 34.4376 36.4094C34.4823 36.3131 34.5461 36.227 34.6251 36.1562C34.6903 36.087 34.7705 36.0336 34.8595 36C34.953 35.9587 35.0541 35.9373 35.1564 35.9373C35.2586 35.9373 35.3597 35.9587 35.4532 36C35.5422 36.0336 35.6224 36.087 35.6876 36.1562C35.7675 36.2263 35.8312 36.3129 35.8744 36.41C35.9176 36.5072 35.9391 36.6125 35.9376 36.7187C35.9376 36.9259 35.8553 37.1247 35.7088 37.2712C35.5623 37.4177 35.3636 37.5 35.1564 37.5Z" fill="black"/>
</svg>
