<svg width="50" height="50" viewBox="0 0 50 50" fill="none" xmlns="http://www.w3.org/2000/svg">
<path d="M5.59521 43.5234C5.25562 44.4484 4.93948 45.3781 4.64677 46.3125C4.53739 46.6875 4.16239 46.9375 3.75614 46.8594C3.28739 46.7812 3.02177 46.2969 3.16239 45.8281C3.62802 44.3479 4.14885 42.8823 4.72489 41.4313V34.0781C4.72059 29.5355 5.7077 25.0467 7.6173 20.925C9.52691 16.8032 12.313 13.1479 15.7811 10.2141C22.3765 4.63317 30.7351 1.56816 39.3749 1.5625H45.8905C46.4098 1.56427 46.9167 1.72188 47.3454 2.01495C47.7741 2.30801 48.105 2.72302 48.2952 3.20625C48.4202 3.52813 48.4796 3.87344 48.4686 4.21875C48.464 4.9 48.203 5.55313 47.7405 6.05313C44.2453 10.0692 41.1309 14.4013 38.4374 18.9938C38.1935 19.3969 37.8495 19.7301 37.4388 19.9612C37.0282 20.1922 36.5648 20.3132 36.0936 20.3125H34.0311L35.0749 22.0313C35.3254 22.4448 35.4638 22.9165 35.4764 23.3998C35.489 23.8832 35.3754 24.3615 35.1468 24.7875C34.5271 25.9374 33.9203 27.0943 33.3265 28.2578C31.9734 30.9217 30.1069 33.2917 27.8343 35.2313C27.2987 35.6779 26.6254 35.9263 25.928 35.9344H23.8499C23.9405 36.1687 23.9874 36.4203 23.9874 36.6734C23.9896 37.0506 23.8834 37.4204 23.6815 37.739C23.4795 38.0575 23.1904 38.3114 22.8483 38.4703C19.7671 39.956 16.3894 40.7247 12.9686 40.7187H7.18739L5.59521 43.5234ZM8.12177 37.5937H12.9686C15.0711 37.5982 17.1605 37.2632 19.1561 36.6016L18.1749 36.1437C17.8153 35.9998 17.5148 35.7386 17.3223 35.4026C17.1297 35.0665 17.0563 34.6752 17.114 34.2922C17.1755 33.8774 17.3853 33.4989 17.7045 33.2268C18.0236 32.9548 18.4305 32.8076 18.8499 32.8125H25.928C27.82 31.1284 29.3829 29.1077 30.5374 26.8531C30.9765 25.9719 31.7968 24.4281 32.3015 23.4844L30.2811 20.1562C30.0274 19.7343 29.941 19.2325 30.039 18.75H22.1718C21.5374 19.3354 20.914 19.9344 20.3015 20.5469C15.3176 25.509 11.2017 31.2711 8.12177 37.5937ZM39.9343 10.9375C41.4597 8.78453 43.0784 6.69921 44.7858 4.6875H39.3749C36.0948 4.68922 32.8328 5.17358 29.6936 6.125V10.9219C32.4957 9.09033 35.437 7.48124 38.4905 6.10938C38.8655 5.9375 39.3186 6.09375 39.5061 6.46875C39.5555 6.56444 39.5846 6.6693 39.5915 6.77675C39.5985 6.88421 39.5831 6.99193 39.5464 7.09317C39.5097 7.19441 39.4525 7.28697 39.3784 7.36505C39.3042 7.44312 39.2147 7.50503 39.1155 7.54687C36.8848 8.55197 34.7136 9.68404 32.6124 10.9375H39.9343ZM21.7561 9.71875C20.3678 10.5806 19.0444 11.5431 17.7968 12.5984C14.6765 15.24 12.17 18.5304 10.4521 22.2402C8.73415 25.95 7.84611 29.9899 7.84989 34.0781V34.7109C11.4222 28.0527 16.1281 22.0683 21.7561 17.0266V9.71875Z" fill="black"/>
</svg>
