<svg width="50" height="50" viewBox="0 0 50 50" fill="none" xmlns="http://www.w3.org/2000/svg">
<path d="M12.5 41.6667H37.5C38.0903 41.6667 38.5854 41.4667 38.9854 41.0667C39.3854 40.6667 39.5847 40.1723 39.5833 39.5834H10.4167C10.4167 40.1736 10.6167 40.6688 11.0167 41.0688C11.4167 41.4688 11.9111 41.6681 12.5 41.6667ZM25 16.6667C23.3333 16.6667 21.9444 16.0854 20.8333 14.9229C19.7222 13.7604 19.2014 12.3452 19.2708 10.6771C19.3403 9.14934 19.809 7.78614 20.6771 6.58753C21.5451 5.38892 22.5174 4.3042 23.5938 3.33337C23.8021 3.15975 24.0194 3.02989 24.2458 2.94378C24.4722 2.85767 24.7236 2.81392 25 2.81253C25.2764 2.81114 25.5285 2.85489 25.7563 2.94378C25.984 3.03267 26.2007 3.16253 26.4063 3.33337C27.4826 4.30559 28.4549 5.391 29.3229 6.58962C30.191 7.78823 30.6597 9.15073 30.7292 10.6771C30.7986 12.3438 30.2778 13.7591 29.1667 14.9229C28.0556 16.0868 26.6667 16.6681 25 16.6667ZM22.9167 35.4167H27.0833V22.9167H22.9167V35.4167ZM25 12.5C25.4514 12.5 25.825 12.3438 26.1208 12.0313C26.4167 11.7188 26.5639 11.3368 26.5625 10.8854C26.5625 10.2952 26.3972 9.75698 26.0667 9.27086C25.7361 8.78475 25.3806 8.316 25 7.86462C24.6181 8.316 24.2618 8.78475 23.9313 9.27086C23.6007 9.75698 23.4361 10.2952 23.4375 10.8854C23.4375 11.3368 23.5854 11.7188 23.8813 12.0313C24.1771 12.3438 24.55 12.5 25 12.5ZM42.1875 35.4167C42.6389 35.4167 43.0125 35.2688 43.3083 34.9729C43.6042 34.6771 43.7514 34.3042 43.75 33.8542C43.7486 33.4042 43.6007 33.0313 43.3063 32.7354C43.0118 32.4396 42.6389 32.2917 42.1875 32.2917C41.7361 32.2917 41.3632 32.4396 41.0688 32.7354C40.7743 33.0313 40.6264 33.4042 40.625 33.8542C40.6236 34.3042 40.7715 34.6778 41.0688 34.975C41.366 35.2723 41.7389 35.4195 42.1875 35.4167ZM37.5 45.8334H12.5C10.7639 45.8334 9.28819 45.2257 8.07292 44.0104C6.85764 42.7952 6.25 41.3195 6.25 39.5834V37.5C6.25 36.9098 6.45 36.4153 6.85 36.0167C7.25 35.6181 7.74444 35.4181 8.33333 35.4167H18.75V22.9167C18.75 21.7709 19.1583 20.7903 19.975 19.975C20.7917 19.1598 21.7722 18.7514 22.9167 18.75H27.0833C28.2292 18.75 29.2104 19.1584 30.0271 19.975C30.8438 20.7917 31.2514 21.7723 31.25 22.9167V35.4167H36.6667C36.5972 35.1389 36.5451 34.8785 36.5104 34.6354C36.4757 34.3924 36.4583 34.132 36.4583 33.8542C36.4583 32.257 37.0139 30.9028 38.125 29.7917C39.2361 28.6806 40.5903 28.125 42.1875 28.125C43.7847 28.125 45.1389 28.6806 46.25 29.7917C47.3611 30.9028 47.9167 32.257 47.9167 33.8542C47.9167 35.1736 47.5264 36.3368 46.7458 37.3438C45.9653 38.3507 44.9667 39.0278 43.75 39.375V39.5834C43.75 41.3195 43.1424 42.7952 41.9271 44.0104C40.7118 45.2257 39.2361 45.8334 37.5 45.8334Z" fill="black"/>
</svg>
