<svg width="50" height="50" viewBox="0 0 50 50" fill="none" xmlns="http://www.w3.org/2000/svg">
<path d="M14.6179 8.36173C14.4974 8.36222 14.3772 8.36495 14.2546 8.36788C10.9428 8.44659 6.88354 9.41319 1.82788 11.6607V35.4276C7.76245 32.6132 12.2496 31.8078 15.9119 32.196C19.1835 32.5427 21.7405 33.823 24.0722 35.2416V11.5141C21.8049 9.78126 19.1704 8.58048 15.6767 8.38907C15.3241 8.36961 14.971 8.36049 14.6178 8.36173H14.6179ZM35.3179 8.36173C34.9566 8.36017 34.6029 8.37032 34.2589 8.38907C30.7655 8.58048 28.131 9.78126 25.8636 11.5141V35.2416C28.1953 33.823 30.7523 32.5427 34.024 32.1959C37.6863 31.8078 42.1734 32.6131 48.108 35.4277V11.6608C43.0523 9.41329 38.993 8.44669 35.6812 8.36778C35.5586 8.36505 35.4384 8.36232 35.3179 8.36192V8.36173ZM35.8765 33.9262C35.7751 33.926 35.674 33.9278 35.5743 33.9294C35.1047 33.9367 34.6534 33.9655 34.2164 34.0117C30.9027 34.363 28.3958 35.7672 25.8638 37.375V37.4024C25.2238 37.208 24.5923 37.1709 23.9685 37.3076C21.4718 35.7278 18.9877 34.3582 15.7197 34.0117C15.1733 33.9539 14.6025 33.9255 14.0044 33.9295C10.8755 33.9503 6.9895 34.8844 1.82798 37.439V41.5923C7.76255 38.7776 12.2493 37.9725 15.9118 38.3607C17.7228 38.5526 19.3138 39.0291 20.7702 39.6575C20.3129 40.2497 19.8612 40.9532 19.4152 41.7755H30.8562C30.2771 40.9728 29.7041 40.2702 29.1349 39.67C30.5994 39.035 32.2003 38.5538 34.0238 38.3607C37.6862 37.9726 42.173 38.7776 48.1078 41.5925V37.4392C42.9164 34.8698 39.0145 33.9369 35.8763 33.9265L35.8765 33.9262Z" fill="black"/>
</svg>
