<svg width="47" height="47" viewBox="0 0 47 47" fill="none" xmlns="http://www.w3.org/2000/svg">
<g clip-path="url(#clip0_292_332)">
<path fill-rule="evenodd" clip-rule="evenodd" d="M35.7623 16.8883C34.9388 13.8149 32.9281 11.1945 30.1725 9.60355C27.417 8.01263 24.1423 7.58151 21.0688 8.40503L19.4066 8.85042C15.8924 9.79206 12.8961 12.0912 11.077 15.242C9.25785 18.3928 8.76489 22.1372 9.70654 25.6515L10.0199 26.8208C10.5273 28.7144 11.4027 30.4896 12.5961 32.0449C13.7896 33.6003 15.2777 34.9053 16.9755 35.8855C18.6733 36.8657 20.5475 37.502 22.4912 37.7578C24.4349 38.0137 26.4099 37.8843 28.3035 37.3769L29.4755 37.0629C29.997 36.9231 30.5527 36.9963 31.0202 37.2662C31.4878 37.5362 31.829 37.9808 31.9687 38.5023C32.1085 39.0238 32.0353 39.5795 31.7654 40.0471C31.4954 40.5146 31.0508 40.8558 30.5293 40.9956L29.3573 41.3096C24.4899 42.6138 19.3037 41.931 14.9397 39.4115C10.5757 36.8919 7.39138 32.742 6.08716 27.8746L5.77384 26.7052C4.55272 22.1479 5.19199 17.2922 7.55101 13.2063C9.91004 9.12032 13.7956 6.13884 18.3529 4.91772L20.0151 4.47233C24.1315 3.36933 28.5175 3.94676 32.2082 6.07759C35.8989 8.20841 38.592 11.7181 39.695 15.8345C40.1934 17.6946 40.3204 19.6347 40.0687 21.5439C39.817 23.4531 39.1915 25.294 38.228 26.9613C37.2645 28.6287 35.9819 30.0899 34.4535 31.2613C32.9251 32.4328 31.1808 33.2916 29.3203 33.7886L28.193 34.0907C24.9972 34.947 21.5921 34.4987 18.7268 32.8444C15.8615 31.1902 13.7708 28.4654 12.9144 25.2696L12.7943 24.8213C12.4372 23.487 12.3463 22.0955 12.527 20.7261C12.7076 19.3568 13.1562 18.0364 13.8471 16.8404C14.538 15.6444 15.4578 14.5962 16.5538 13.7557C17.6498 12.9151 18.9006 12.2987 20.2349 11.9415L21.4042 11.6282C23.7881 10.9902 26.3277 11.3247 28.465 12.5583C30.6023 13.7919 32.1625 15.8235 32.8026 18.2068C33.7861 21.8773 31.6084 25.653 27.9352 26.6373L27.2667 26.8164C25.6813 27.2412 23.9921 27.0188 22.5707 26.1982C21.1493 25.3775 20.1121 24.0258 19.6873 22.4404L19.5074 21.7692C19.3677 21.2477 19.4408 20.6921 19.7108 20.2245C19.9807 19.7569 20.4254 19.4158 20.9469 19.276C21.4684 19.1363 22.024 19.2094 22.4916 19.4794C22.9592 19.7493 23.3004 20.194 23.4401 20.7155L23.6193 21.384C23.6912 21.6526 23.8154 21.9043 23.9846 22.1249C24.1539 22.3455 24.3649 22.5306 24.6057 22.6696C24.8465 22.8086 25.1123 22.8988 25.3879 22.9351C25.6636 22.9714 25.9437 22.953 26.2122 22.8811L26.8834 22.7012C28.3831 22.2994 29.2743 20.7596 28.8725 19.2599C28.5112 17.9198 27.6328 16.7779 26.4303 16.0848C25.2277 15.3918 23.7993 15.2043 22.4587 15.5635L21.2894 15.8768C19.6379 16.3193 18.2299 17.3998 17.375 18.8804C16.5202 20.361 16.2885 22.1206 16.731 23.7721L16.8512 24.2204C17.428 26.3732 18.8364 28.2086 20.7665 29.323C22.6967 30.4374 24.9904 30.7394 27.1432 30.1625L28.2706 29.8604C29.6147 29.5014 30.8749 28.8809 31.9791 28.0344C33.0832 27.188 34.0097 26.1321 34.7055 24.9273C35.4013 23.7226 35.8528 22.3924 36.0341 21.013C36.2154 19.6336 36.1231 18.232 35.7623 16.8883Z" fill="#C4A35A"/>
</g>
<defs>
<clipPath id="clip0_292_332">
<rect width="38" height="38" fill="white" transform="translate(36.7051) rotate(75)"/>
</clipPath>
</defs>
</svg>
