<svg width="50" height="50" viewBox="0 0 50 50" fill="none" xmlns="http://www.w3.org/2000/svg">
<path d="M25.0001 4.16675C26.8667 4.16675 28.6751 4.41258 30.3959 4.873L25.9667 9.30008C25.6307 9.63744 25.3344 10.0121 25.0834 10.4167H25.0001C22.1158 10.4167 19.2962 11.272 16.898 12.8745C14.4998 14.4769 12.6306 16.7545 11.5268 19.4193C10.4231 22.084 10.1343 25.0163 10.697 27.8451C11.2597 30.674 12.6486 33.2725 14.6881 35.3121C16.7276 37.3516 19.3261 38.7405 22.155 39.3032C24.9839 39.8659 27.9161 39.5771 30.5809 38.4733C33.2456 37.3696 35.5232 35.5004 37.1257 33.1021C38.7281 30.7039 39.5834 27.8844 39.5834 25.0001V24.9167C39.9862 24.6667 40.3577 24.3716 40.698 24.0313L45.1272 19.6042C45.5876 21.3251 45.8334 23.1334 45.8334 25.0001C45.8334 36.5063 36.5063 45.8334 25.0001 45.8334C13.4938 45.8334 4.16675 36.5063 4.16675 25.0001C4.16675 13.4938 13.4938 4.16675 25.0001 4.16675ZM24.1376 14.6188C24.1376 16.3917 24.0501 18.1897 24.1459 19.9605L23.0209 21.0855C22.6339 21.4725 22.3269 21.9319 22.1175 22.4375C21.9081 22.9432 21.8003 23.4851 21.8003 24.0324C21.8003 24.5797 21.9081 25.1216 22.1175 25.6272C22.3269 26.1328 22.6339 26.5923 23.0209 26.9792C23.4079 27.3662 23.8673 27.6732 24.373 27.8827C24.8786 28.0921 25.4205 28.1999 25.9678 28.1999C26.5151 28.1999 27.057 28.0921 27.5626 27.8827C28.0683 27.6732 28.5277 27.3662 28.9147 26.9792L30.0397 25.8542C31.8105 25.9501 33.6063 25.8626 35.3813 25.8626C35.2168 27.8425 34.4894 29.734 33.2851 31.3141C32.0808 32.8941 30.4498 34.0969 28.5844 34.7804C26.719 35.464 24.697 35.5998 22.7569 35.1719C20.8168 34.744 19.0396 33.7702 17.6348 32.3654C16.23 30.9606 15.2562 29.1833 14.8283 27.2433C14.4004 25.3032 14.5362 23.2812 15.2197 21.4158C15.9033 19.5504 17.106 17.9193 18.6861 16.715C20.2662 15.5107 22.1577 14.7834 24.1376 14.6188ZM38.5501 4.43133C38.9304 4.589 39.2554 4.85578 39.4842 5.19802C39.7129 5.54025 39.8352 5.94259 39.8355 6.35425V10.1667H43.6459C44.0579 10.1668 44.4606 10.2891 44.8031 10.518C45.1456 10.7469 45.4126 11.0723 45.5702 11.4529C45.7279 11.8335 45.7692 12.2523 45.6888 12.6564C45.6085 13.0605 45.4101 13.4316 45.1188 13.723L37.7501 21.0834C37.3595 21.4741 36.8297 21.6937 36.2772 21.6938H31.2501L27.4417 25.5042C27.0508 25.8952 26.5206 26.1148 25.9678 26.1148C25.415 26.1148 24.8848 25.8952 24.4938 25.5042C24.1029 25.1133 23.8833 24.5831 23.8833 24.0303C23.8833 23.4774 24.1029 22.9473 24.4938 22.5563L28.3043 18.7501V13.7209C28.304 13.447 28.3578 13.1757 28.4626 12.9226C28.5673 12.6695 28.7209 12.4396 28.9147 12.2459L36.2792 4.88133C36.5706 4.5898 36.9419 4.39124 37.3461 4.31077C37.7503 4.2303 38.1693 4.27153 38.5501 4.42925" fill="black"/>
</svg>
