<svg width="50" height="50" viewBox="0 0 50 50" fill="none" xmlns="http://www.w3.org/2000/svg">
<path d="M47.1097 4.18224C46.0807 3.32677 44.6839 3.77531 42.8847 5.31925C35.4531 11.6969 23.082 22.8134 15.3035 31.5988L17.3611 33.6565C25.3894 25.1325 37.2214 13.5858 47.1096 4.18214L47.1097 4.18224ZM14.0553 32.8365L12.3786 34.4994L14.5565 36.6775C15.0879 36.0958 15.6221 35.5167 16.159 34.9402L14.0553 32.8365ZM8.50884 32.8395L7.26587 34.0824L14.9999 41.8164L16.2428 40.5735L8.50884 32.8395ZM8.79614 38.131L2.89038 44.0367C2.92671 45.1588 3.93608 46.218 5.10015 46.2464L11.0058 40.3407L10.2112 39.5462C10.4707 39.9626 10.4885 40.3963 10.2558 40.6299C9.95073 40.9349 9.3228 40.8016 8.85317 40.332C9.3227 40.8016 9.4561 41.4297 9.15103 41.7347C8.84585 42.0398 8.21792 41.9066 7.74829 41.4368C8.21802 41.9066 8.35122 42.5345 8.04614 42.8395C7.74106 43.1446 7.11304 43.0113 6.64351 42.5416C7.11304 43.0113 7.24634 43.6393 6.94136 43.9443C6.63618 44.2494 6.00815 44.1162 5.53862 43.6465C6.00815 44.1162 6.14155 44.7442 5.83647 45.0492C5.5314 45.3543 4.90337 45.2211 4.43374 44.7514C3.96421 44.2819 3.83091 43.6537 4.13589 43.3487C4.44106 43.0438 5.06909 43.1771 5.53862 43.6466C5.06909 43.1771 4.93579 42.5491 5.24077 42.2441C5.54595 41.9389 6.17388 42.0722 6.64351 42.5419C6.17378 42.0722 6.04058 41.4443 6.34565 41.1392C6.65073 40.8341 7.27876 40.9673 7.74829 41.437C7.27876 40.9673 7.14546 40.3394 7.45044 40.0343C7.75562 39.7292 8.38364 39.8624 8.85317 40.3321C8.38364 39.8624 8.25034 39.2345 8.55532 38.9294C8.78872 38.6967 9.22212 38.7144 9.63833 38.9734L8.79614 38.131Z" fill="black"/>
</svg>
