<svg width="50" height="50" viewBox="0 0 50 50" fill="none" xmlns="http://www.w3.org/2000/svg">
<g clip-path="url(#clip0_450_313)">
<path d="M25.0001 39.5834C25.0001 40.2917 25.0626 40.9792 25.1667 41.6667H8.33342C7.22835 41.6667 6.16854 41.2277 5.38714 40.4463C4.60573 39.6649 4.16675 38.6051 4.16675 37.5V12.5C4.16675 11.395 4.60573 10.3352 5.38714 9.55376C6.16854 8.77236 7.22835 8.33337 8.33342 8.33337H10.4167L14.5834 16.6667H20.8334L16.6667 8.33337H20.8334L25.0001 16.6667H31.2501L27.0834 8.33337H31.2501L35.4168 16.6667H41.6668L37.5001 8.33337H45.8334V26.4167C43.6116 25.3597 41.1583 24.8825 38.7022 25.0295C36.2462 25.1765 33.8673 25.943 31.7875 27.2575C29.7076 28.572 27.9944 30.3917 26.8075 32.547C25.6207 34.7022 24.9989 37.1229 25.0001 39.5834ZM49.5834 42.5C49.7917 42.5 49.7917 42.7084 49.5834 42.9167L47.5001 46.4584C47.2917 46.6667 47.0834 46.6667 46.8751 46.6667L44.3751 45.8334C43.7501 46.25 43.3334 46.4584 42.7084 46.875L42.2917 49.5834C42.2917 49.7917 42.0834 50 41.8751 50H37.7084C37.5001 50 37.2917 49.7917 37.0834 49.5834L36.6668 46.875C36.0418 46.6667 35.4167 46.25 35.0001 45.8334L32.5001 46.875C32.2918 46.875 32.0834 46.875 31.8751 46.6667L29.7918 43.125C29.5834 42.9167 29.7917 42.7084 30.0001 42.5L32.2918 40.8334V38.75L30.0001 37.0834C29.7917 36.875 29.7918 36.6667 29.7918 36.4584L31.8751 32.9167C32.0834 32.7084 32.2918 32.7084 32.5001 32.7084L35.0001 33.75C35.6251 33.3334 36.0418 33.125 36.6668 32.7084L37.0834 30C37.0834 29.7917 37.2918 29.5834 37.7084 29.5834H41.8751C42.0834 29.5834 42.2917 29.7917 42.2917 30L42.7084 32.7084C43.3334 32.9167 43.9584 33.3334 44.5834 33.75L47.0834 32.7084C47.2918 32.7084 47.7084 32.7084 47.7084 32.9167L49.7918 36.4584C50.0001 36.6667 49.7917 36.875 49.5834 37.0834L47.2918 38.75V40.8334L49.5834 42.5ZM42.7084 39.5834C42.7084 37.9167 41.2501 36.4584 39.5834 36.4584C37.9168 36.4584 36.4584 37.9167 36.4584 39.5834C36.4584 41.25 37.9168 42.7084 39.5834 42.7084C41.2501 42.7084 42.7084 41.25 42.7084 39.5834Z" fill="black"/>
</g>
<defs>
<clipPath id="clip0_450_313">
<rect width="50" height="50" fill="white"/>
</clipPath>
</defs>
</svg>
