<svg width="50" height="50" viewBox="0 0 50 50" fill="none" xmlns="http://www.w3.org/2000/svg">
<path fill-rule="evenodd" clip-rule="evenodd" d="M16.5407 4.86145C18.6688 2.74687 21.6167 1.56458 25.0001 1.56458C28.3834 1.56458 31.3313 2.74687 33.4594 4.86145C35.5844 6.97187 36.799 9.91666 36.9021 13.2781C36.9501 14.8552 36.9792 16.6698 36.9792 18.7521C36.9792 20.8344 36.9501 22.6489 36.9021 24.2271C36.799 27.5875 35.5844 30.5323 33.4594 32.6427C31.3313 34.7573 28.3834 35.9396 25.0001 35.9396C21.6167 35.9396 18.6688 34.7573 16.5407 32.6427C14.4157 30.5323 13.2011 27.5875 13.098 24.226C13.0446 22.4019 13.0189 20.577 13.0209 18.7521C13.0209 16.6687 13.0501 14.8552 13.098 13.2771C13.2001 9.91666 14.4157 6.97291 16.5407 4.86145ZM9.95422 20.3146C10.1125 20.3146 10.2688 20.3236 10.423 20.3417C10.4334 21.8 10.4584 23.1177 10.4959 24.3062C10.6157 28.2542 12.0542 31.8583 14.7053 34.4906C17.3657 37.1323 20.9928 38.5437 25.0001 38.5437C29.0073 38.5437 32.6355 37.1323 35.2948 34.4906C37.9448 31.8573 39.3844 28.2542 39.5053 24.3062C39.5417 23.1135 39.5678 21.7906 39.5782 20.326C39.6796 20.3191 39.7817 20.3153 39.8844 20.3146H41.0126C43.348 20.3146 45.2073 22.2594 45.148 24.5719C44.8917 34.6417 38.6823 42.0573 29.3969 43.8542C29.3369 44.4398 29.266 45.0243 29.1844 45.6073C28.9865 47.0135 27.9011 48.2885 26.2719 48.399C25.9157 48.4246 25.4921 48.4382 25.0011 48.4396C24.5094 48.4382 24.0855 48.4246 23.7292 48.399C22.1001 48.2875 21.0126 47.0135 20.8178 45.6042C20.7392 45.0328 20.6708 44.4602 20.6126 43.8865C11.2334 42.149 4.94797 34.7052 4.68859 24.5729C4.63026 22.2604 6.49067 20.3156 8.82401 20.3156L9.95422 20.3146Z" fill="black"/>
</svg>
