<svg width="48" height="48" viewBox="0 0 48 48" fill="none" xmlns="http://www.w3.org/2000/svg">
<path fill-rule="evenodd" clip-rule="evenodd" d="M30 24.8321V29.5278C28.7725 30.6265 28 32.2231 28 34C28 37.3137 30.6863 40 34 40C37.3137 40 40 37.3137 40 34C40 32.2231 39.2275 30.6265 38.0002 29.5279V24.8321C41.5319 26.3753 44 29.8994 44 33.9999C44 39.5228 39.5228 44 34 44C28.4772 44 24 39.5228 24 34C24 29.8994 26.4682 26.3753 30 24.8321ZM20 6V20H16L15.9998 12.5095C12.3729 15.0395 10 19.2427 10 24C10 31.2803 15.557 37.2626 22.6606 37.9366C23.1822 39.4394 23.9942 40.8064 25.0297 41.971C24.6888 41.9903 24.3456 42 24 42C14.0588 42 6 33.9412 6 24C6 18.3454 8.60747 13.2998 12.6856 9.99984L6 10V6H20ZM36 22V34H32V22H36ZM26.2329 6.13716C35.1204 7.23684 42 14.8149 42 24C42 24.3456 41.9902 24.6888 41.9706 25.0294C40.8064 23.9942 39.4393 23.1822 37.9368 22.6607C37.3171 16.1308 32.2121 10.9078 25.7367 10.1066L26.2329 6.13716Z" fill="black"/>
</svg>
