<svg width="48" height="48" viewBox="0 0 48 48" fill="none" xmlns="http://www.w3.org/2000/svg">
<path d="M46.5 15.861C46.5 10.044 41.784 5.3295 35.9685 5.3295C31.5525 5.3295 27.777 8.0505 26.2118 11.9048C25.2353 6.0045 20.124 1.5 13.9462 1.5C7.07325 1.5 1.5 7.07325 1.5 13.9462C1.5 20.5987 6.72225 26.016 13.2877 26.3602C13.101 26.6565 12.9885 26.9977 12.9885 27.351V33.573L6.2865 30.2228V44.5852L13.0522 41.202C13.2622 42.0098 14.0122 42.669 14.904 42.669H20.6483V46.5H29.2657V42.6698H34.053C35.103 42.6698 35.9678 41.754 35.9678 40.7557V32.1383L40.755 33.0952V26.3933L35.9678 27.3502C35.9678 27.0037 35.8582 26.6708 35.679 26.3783C35.7757 26.3813 35.8695 26.3933 35.9678 26.3933C41.784 26.3933 46.5 21.678 46.5 15.861ZM44.5275 17.3948C44.5118 18.0246 44.2505 18.6234 43.7995 19.0634C43.3485 19.5033 42.7433 19.7496 42.1133 19.7496C41.4832 19.7496 40.878 19.5033 40.427 19.0634C39.976 18.6234 39.7147 18.0246 39.699 17.3948C39.7147 16.7649 39.976 16.1661 40.427 15.7261C40.878 15.2862 41.4832 15.0399 42.1133 15.0399C42.7433 15.0399 43.3485 15.2862 43.7995 15.7261C44.2505 16.1661 44.5118 16.7649 44.5275 17.3948ZM39.6997 8.121C40.0166 8.121 40.3304 8.18342 40.6232 8.30469C40.916 8.42596 41.182 8.60371 41.4061 8.82779C41.6302 9.05187 41.8079 9.31789 41.9292 9.61066C42.0505 9.90344 42.1129 10.2172 42.1129 10.5341C42.1129 10.851 42.0505 11.1648 41.9292 11.4576C41.8079 11.7504 41.6302 12.0164 41.4061 12.2405C41.182 12.4645 40.916 12.6423 40.6232 12.7636C40.3304 12.8848 40.0166 12.9473 39.6997 12.9473C39.0598 12.9473 38.4462 12.6931 37.9937 12.2406C37.5412 11.7881 37.287 11.1744 37.287 10.5345C37.2868 10.2176 37.3491 9.90369 37.4702 9.61083C37.5914 9.31797 37.7691 9.05187 37.9932 8.82772C38.2173 8.60358 38.4833 8.42579 38.7761 8.30453C39.069 8.18327 39.3828 8.1209 39.6997 8.121ZM38.127 16.2263C38.127 16.3864 38.0634 16.5399 37.9502 16.6532C37.8369 16.7664 37.6834 16.83 37.5232 16.83C37.3631 16.83 37.2096 16.7664 37.0963 16.6532C36.9831 16.5399 36.9195 16.3864 36.9195 16.2263C36.9195 16.0661 36.9831 15.9126 37.0963 15.7993C37.2096 15.6861 37.3631 15.6225 37.5232 15.6225C37.6834 15.6225 37.8369 15.6861 37.9502 15.7993C38.0634 15.9126 38.127 16.0661 38.127 16.2263ZM36.9203 13.9072C36.9995 13.9073 37.078 13.923 37.1513 13.9534C37.2245 13.9837 37.291 14.0283 37.3471 14.0843C37.4031 14.1404 37.4475 14.207 37.4778 14.2803C37.5081 14.3536 37.5237 14.4321 37.5236 14.5114C37.5236 14.5907 37.5079 14.6692 37.4775 14.7424C37.4471 14.8156 37.4026 14.8822 37.3465 14.9382C37.2904 14.9942 37.2238 15.0386 37.1506 15.0689C37.0773 15.0992 36.9988 15.1148 36.9195 15.1147C36.7594 15.1147 36.6058 15.0509 36.4927 14.9377C36.3795 14.8244 36.316 14.6707 36.3161 14.5106C36.3162 14.3505 36.3799 14.197 36.4932 14.0838C36.6065 13.9707 36.7601 13.9071 36.9203 13.9072ZM35.9873 16.83C36.1069 16.83 36.2238 16.8655 36.3232 16.932C36.4227 16.9985 36.5002 17.093 36.5459 17.2035C36.5916 17.3141 36.6035 17.4357 36.58 17.553C36.5566 17.6703 36.4989 17.778 36.4142 17.8625C36.3295 17.947 36.2216 18.0044 36.1043 18.0276C35.9869 18.0507 35.8653 18.0385 35.7549 17.9926C35.6444 17.9466 35.5501 17.8689 35.4839 17.7692C35.4177 17.6696 35.3825 17.5526 35.3827 17.433C35.3831 17.2729 35.447 17.1196 35.5603 17.0065C35.6737 16.8935 35.8272 16.83 35.9873 16.83ZM35.658 14.511C35.6582 14.5902 35.6428 14.6686 35.6127 14.7419C35.5826 14.8151 35.5383 14.8817 35.4824 14.9378C35.4266 14.994 35.3602 15.0385 35.2871 15.069C35.2141 15.0995 35.1357 15.1153 35.0565 15.1155C34.9773 15.1157 34.8989 15.1003 34.8256 15.0702C34.7524 15.0401 34.6858 14.9958 34.6297 14.9399C34.5735 14.8841 34.529 14.8177 34.4985 14.7446C34.468 14.6716 34.4522 14.5932 34.452 14.514C34.4516 14.3541 34.5147 14.2005 34.6276 14.0872C34.7404 13.9738 34.8936 13.9099 35.0535 13.9095C35.2134 13.9091 35.367 13.9723 35.4803 14.0851C35.5937 14.1979 35.6576 14.3511 35.658 14.511ZM35.0535 16.2263C35.0535 16.3055 35.038 16.384 35.0077 16.4572C34.9774 16.5304 34.933 16.5969 34.877 16.653C34.821 16.7091 34.7546 16.7536 34.6814 16.7839C34.6082 16.8143 34.5297 16.83 34.4505 16.83C34.3713 16.83 34.2928 16.8145 34.2196 16.7842C34.1463 16.7539 34.0798 16.7095 34.0237 16.6535C33.9677 16.5975 33.9232 16.5311 33.8928 16.4579C33.8625 16.3847 33.8468 16.3062 33.8468 16.227C33.8467 16.067 33.9101 15.9135 34.0232 15.8002C34.1363 15.687 34.2897 15.6233 34.4497 15.6232C34.6098 15.6232 34.7633 15.6866 34.8765 15.7997C34.9897 15.9128 35.0534 16.0662 35.0535 16.2263ZM18.357 4.7985C18.7383 4.78779 19.1178 4.85363 19.4732 4.99214C19.8285 5.13064 20.1525 5.33899 20.426 5.60487C20.6994 5.87075 20.9168 6.18876 21.0652 6.5401C21.2136 6.89144 21.2901 7.26897 21.2901 7.65037C21.2901 8.03178 21.2136 8.40931 21.0652 8.76065C20.9168 9.11199 20.6994 9.43 20.426 9.69588C20.1525 9.96176 19.8285 10.1701 19.4732 10.3086C19.1178 10.4471 18.7383 10.513 18.357 10.5023C17.6145 10.4814 16.9094 10.1718 16.3916 9.63922C15.8738 9.10667 15.5841 8.39316 15.5841 7.65037C15.5841 6.90758 15.8738 6.19408 16.3916 5.66152C16.9094 5.12897 17.6145 4.81936 18.357 4.7985ZM16.4977 14.3782C16.4893 14.5618 16.4105 14.735 16.2777 14.8618C16.1448 14.9887 15.9682 15.0595 15.7845 15.0595C15.6008 15.0595 15.4242 14.9887 15.2913 14.8618C15.1585 14.735 15.0797 14.5618 15.0712 14.3782C15.0712 14.1891 15.1464 14.0077 15.2802 13.8739C15.4139 13.7401 15.5953 13.665 15.7845 13.665C15.9737 13.665 16.1551 13.7401 16.2888 13.8739C16.4226 14.0077 16.4977 14.1891 16.4977 14.3782ZM15.0712 11.6378C15.2605 11.638 15.4419 11.7135 15.5755 11.8476C15.7091 11.9816 15.784 12.1632 15.7838 12.3525C15.7835 12.5418 15.708 12.7232 15.5739 12.8568C15.4399 12.9904 15.2583 13.0653 15.069 13.065C14.8797 13.0647 14.6983 12.9892 14.5647 12.8552C14.4311 12.7211 14.3562 12.5395 14.3565 12.3502C14.3568 12.161 14.4323 11.9796 14.5663 11.846C14.7004 11.7124 14.882 11.6375 15.0712 11.6378ZM13.9695 15.0908C14.0631 15.091 14.1558 15.1097 14.2422 15.1457C14.3286 15.1818 14.407 15.2345 14.473 15.3009C14.5391 15.3672 14.5914 15.446 14.627 15.5326C14.6626 15.6191 14.6807 15.7119 14.6805 15.8055C14.6803 15.8991 14.6616 15.9918 14.6255 16.0782C14.5895 16.1646 14.5367 16.243 14.4704 16.309C14.404 16.3751 14.3253 16.4274 14.2387 16.463C14.1521 16.4986 14.0594 16.5167 13.9658 16.5165C13.7767 16.516 13.5956 16.4404 13.4622 16.3064C13.3289 16.1723 13.2543 15.9908 13.2548 15.8018C13.2552 15.6127 13.3308 15.4316 13.4649 15.2982C13.5989 15.1649 13.7804 15.0903 13.9695 15.0908ZM13.5795 12.351C13.5824 12.4467 13.5661 12.5419 13.5315 12.6312C13.4969 12.7204 13.4447 12.8018 13.378 12.8704C13.3114 12.9391 13.2316 12.9936 13.1434 13.0308C13.0552 13.068 12.9604 13.0871 12.8647 13.087C12.769 13.0868 12.6743 13.0674 12.5862 13.03C12.4982 12.9925 12.4185 12.9377 12.3521 12.8688C12.2856 12.7999 12.2337 12.7184 12.1993 12.6291C12.165 12.5397 12.149 12.4444 12.1522 12.3488C12.1585 12.1635 12.2366 11.9879 12.37 11.8592C12.5034 11.7305 12.6816 11.6587 12.867 11.659C13.0523 11.6593 13.2303 11.7316 13.3633 11.8608C13.4963 11.9899 13.5738 12.1657 13.5795 12.351ZM12.867 14.3782C12.861 14.5635 12.7832 14.7392 12.65 14.8681C12.5168 14.997 12.3387 15.0691 12.1534 15.0691C11.968 15.0691 11.7899 14.997 11.6567 14.8681C11.5236 14.7392 11.4458 14.5635 11.4398 14.3782C11.4398 14.189 11.5149 14.0075 11.6488 13.8736C11.7826 13.7398 11.9641 13.6646 12.1534 13.6646C12.3426 13.6646 12.5242 13.7398 12.658 13.8736C12.7918 14.0075 12.867 14.189 12.867 14.3782ZM6.684 18.6113C5.92754 18.6113 5.20206 18.3107 4.66715 17.7758C4.13225 17.2409 3.83175 16.5155 3.83175 15.759C3.83175 15.0025 4.13225 14.2771 4.66715 13.7422C5.20206 13.2073 5.92754 12.9067 6.684 12.9067C7.44046 12.9067 8.16594 13.2073 8.70085 13.7422C9.23575 14.2771 9.53625 15.0025 9.53625 15.759C9.53625 16.5155 9.23575 17.2409 8.70085 17.7758C8.16594 18.3107 7.44046 18.6113 6.684 18.6113ZM6.684 7.65075C6.684 6.89419 6.98454 6.16861 7.51951 5.63364C8.05449 5.09867 8.78006 4.79813 9.53662 4.79813C10.2932 4.79813 11.0188 5.09867 11.5537 5.63364C12.0887 6.16861 12.3892 6.89419 12.3892 7.65075C12.3892 8.40731 12.0887 9.13289 11.5537 9.66786C11.0188 10.2028 10.2932 10.5034 9.53662 10.5034C8.78006 10.5034 8.05449 10.2028 7.51951 9.66786C6.98454 9.13289 6.684 8.40731 6.684 7.65075ZM13.9462 24.3158C13.5716 24.3157 13.2006 24.2418 12.8545 24.0983C12.5084 23.9548 12.1939 23.7446 11.9291 23.4796C11.6642 23.2146 11.4542 22.9 11.3109 22.5539C11.1676 22.2077 11.0939 21.8367 11.094 21.462C11.0941 21.0873 11.168 20.7164 11.3115 20.3703C11.4549 20.0242 11.6652 19.7097 11.9302 19.4448C12.1951 19.18 12.5097 18.9699 12.8559 18.8266C13.2021 18.6833 13.5731 18.6097 13.9478 18.6097C14.7044 18.6099 15.43 18.9107 15.9649 19.4459C16.4998 19.9811 16.8002 20.7068 16.8 21.4635C16.7998 22.2202 16.499 22.9458 15.9638 23.4807C15.4287 24.0156 14.7029 24.3159 13.9462 24.3158ZM21.2092 12.9067C21.9657 12.9069 22.6912 13.2075 23.2261 13.7423C23.7611 14.2772 24.0619 15.0025 24.0623 15.759C24.0623 16.5157 23.7617 17.2413 23.2266 17.7764C22.6916 18.3114 21.9659 18.612 21.2092 18.612C20.4526 18.612 19.7269 18.3114 19.1919 17.7764C18.6568 17.2413 18.3563 16.5157 18.3563 15.759C18.3564 15.0025 18.6571 14.277 19.1921 13.7421C19.7272 13.2072 20.4527 12.9067 21.2092 12.9067ZM18.7358 25.4355C20.3415 24.7616 21.7884 23.7591 22.9834 22.4925C24.1785 21.2259 25.0952 19.7232 25.6748 18.081C26.3805 21.3637 28.6163 24.0713 31.5983 25.4355H18.7358ZM29.823 19.8098C29.1829 19.8098 28.569 19.5555 28.1164 19.1029C27.6638 18.6502 27.4095 18.0363 27.4095 17.3962C27.4095 16.7561 27.6638 16.1423 28.1164 15.6896C28.569 15.237 29.1829 14.9827 29.823 14.9827C30.4631 14.9827 31.077 15.237 31.5296 15.6896C31.9822 16.1423 32.2365 16.7561 32.2365 17.3962C32.2365 18.0363 31.9822 18.6502 31.5296 19.1029C31.077 19.5555 30.4631 19.8098 29.823 19.8098ZM29.823 10.5338C29.8229 10.2167 29.8853 9.90277 30.0066 9.60985C30.1279 9.31694 30.3057 9.05081 30.5299 8.82666C30.7542 8.60252 31.0203 8.42476 31.3133 8.30355C31.6062 8.18234 31.9202 8.12005 32.2373 8.12025C32.8773 8.12025 33.491 8.37449 33.9436 8.82704C34.3961 9.27959 34.6504 9.89337 34.6504 10.5334C34.6504 11.1734 34.3961 11.7872 33.9436 12.2397C33.491 12.6923 32.8773 12.9465 32.2373 12.9465C31.9202 12.9469 31.6062 12.8848 31.3132 12.7637C31.0202 12.6426 30.754 12.4649 30.5298 12.2408C30.3055 12.0167 30.1277 11.7506 30.0064 11.4576C29.8851 11.1647 29.8228 10.8508 29.823 10.5338ZM33.5542 22.2225C33.5542 21.9055 33.6167 21.5917 33.7381 21.2988C33.8594 21.006 34.0373 20.74 34.2615 20.5159C34.4857 20.2918 34.7518 20.1141 35.0447 19.993C35.3376 19.8718 35.6515 19.8096 35.9685 19.8098C36.4458 19.8099 36.9124 19.9516 37.3092 20.2169C37.7061 20.4822 38.0153 20.8593 38.1978 21.3003C38.3804 21.7414 38.428 22.2267 38.3347 22.6948C38.2415 23.163 38.0115 23.593 37.6738 23.9304C37.3362 24.2678 36.9061 24.4975 36.4379 24.5905C35.9697 24.6835 35.4844 24.6356 35.0435 24.4527C34.6025 24.2699 34.2257 23.9605 33.9606 23.5635C33.6955 23.1665 33.5541 22.6998 33.5542 22.2225Z" fill="black"/>
</svg>
