<svg width="50" height="50" viewBox="0 0 50 50" fill="none" xmlns="http://www.w3.org/2000/svg">
<path d="M23.2539 0.994212L31.5082 9.24848C31.7766 7.71235 32.5664 6.31575 33.7446 5.29415C36.2813 3.08798 40.0897 3.1014 42.6415 5.21865L42.6549 5.22872L42.6667 5.23878C42.8177 5.37076 42.9631 5.50721 43.1029 5.64814V5.61123L43.2371 5.79074C43.5458 6.12628 43.8154 6.48363 44.0458 6.86279L44.997 8.12442C45.0474 8.18817 45.096 8.25248 45.143 8.31735L45.2621 8.47506L45.252 8.4717C45.9651 9.52194 46.3124 10.7198 46.2889 11.9445C46.2553 13.6826 45.4769 15.3486 44.1833 16.6454C43.2383 17.6082 41.9726 18.1903 40.6266 18.2812L47.6629 25.3325C47.7412 25.4108 47.815 25.4919 47.8844 25.5758L47.8861 25.5557L49.1964 27.173C49.7446 27.8141 50.0307 28.6385 49.9974 29.4814C49.9641 30.3243 49.6139 31.1236 49.0168 31.7195L43.821 36.9237C43.4487 37.2976 43.0051 37.5929 42.5165 37.792C42.028 37.9911 41.5044 38.09 40.9768 38.0828C40.4493 38.0756 39.9286 37.9624 39.4456 37.7501C38.9626 37.5377 38.5273 37.2305 38.1654 36.8466L38.1671 36.8701L36.6269 35.293H36.6672C36.3034 34.9009 36.022 34.4398 35.8399 33.9368C35.6578 33.4339 35.5785 32.8996 35.6069 32.3654V32.3487L35.6102 32.3319C35.6623 31.5955 35.47 30.8626 35.0633 30.2465C33.7882 29.916 32.2045 30.3153 31.1777 31.5014C30.3137 32.4963 30.0385 33.9223 30.312 35.0649C30.9227 35.4574 31.6307 35.6353 32.332 35.6068C33.2864 35.5604 34.2257 35.8594 34.9777 36.449V36.4422L35.0247 36.4859C35.1321 36.5731 35.235 36.6659 35.3334 36.7644L35.367 36.7979L35.4844 36.9204L37.0363 38.3867L37.0044 38.3833C37.6983 39.1322 38.0751 40.1207 38.0557 41.1415C38.0363 42.1622 37.6222 43.1357 36.9004 43.8577L31.7548 49.0132C30.5838 50.1876 28.7719 50.3134 27.4632 49.3924L27.4783 49.4293L25.8392 48.0536C25.6704 47.9374 25.5126 47.806 25.3678 47.661L25.3611 47.6543L25.3141 47.614H25.3208L18.3381 40.618C18.2492 41.8344 17.8365 43.1094 16.7443 44.2033C15.4357 45.5135 13.7546 46.2853 12.0098 46.3138C10.768 46.3351 9.55027 45.9699 8.5252 45.2686L8.52855 45.282L6.85755 44.0288C6.52619 43.8221 6.21351 43.5869 5.92306 43.3258L5.61604 43.096H5.67644C4.44119 41.875 3.717 40.2295 3.65094 38.4939C3.58488 36.7583 4.1819 35.0626 5.32076 33.7512H5.32412C6.33746 32.5925 7.71588 31.8142 9.23152 31.545L0.992261 23.2908C0.677755 22.9775 0.428206 22.6052 0.257929 22.1952C0.0876527 21.7852 0 21.3457 0 20.9017C0 20.4578 0.0876527 20.0183 0.257929 19.6083C0.428206 19.1983 0.677755 18.826 0.992261 18.5127L6.24686 13.2464C6.615 12.8766 7.05242 12.583 7.5341 12.3823C8.01579 12.1817 8.5323 12.0779 9.05411 12.077C9.57592 12.076 10.0928 12.1779 10.5752 12.3769C11.0576 12.5758 11.4961 12.8679 11.8655 13.2364C12.0892 13.4567 12.2833 13.6983 12.4477 13.9611L12.451 13.9544L13.6489 16.0297L13.6439 16.028C13.8363 16.3278 13.9643 16.6622 14.0281 17.0313C14.1002 17.4608 14.0617 17.9121 14.0398 18.1554L14.0348 18.2208C14.0231 18.4506 14.0684 18.7543 14.1825 19.1083C15.6085 20.3615 17.8013 20.2441 19.0814 18.766C19.6212 18.1365 19.918 17.3346 19.918 16.5053C19.918 15.6761 19.6212 14.8742 19.0814 14.2447L19.0797 14.243C19.0229 14.1769 18.9636 14.1131 18.9019 14.0517C18.6329 13.9591 18.3533 13.901 18.0697 13.8789L17.8667 14.0047L17.86 14.0098C17.5486 14.2078 17.1975 14.335 16.8316 14.3822C16.5561 14.413 16.2773 14.3876 16.0119 14.3074C15.7466 14.2272 15.5004 14.094 15.2881 13.9158L15.1941 13.8521L15.0767 13.7346C14.995 13.6507 14.9167 13.5657 14.8418 13.4796V13.4863L13.3788 11.9781L13.3721 11.9747L13.2547 11.8573C12.885 11.4876 12.5917 11.0487 12.3916 10.5657C12.1915 10.0827 12.0885 9.56495 12.0885 9.04212C12.0885 8.51929 12.1915 8.00158 12.3916 7.51855C12.5917 7.03552 12.885 6.59663 13.2547 6.22694L18.4774 0.994212C18.7902 0.679157 19.1623 0.429111 19.5722 0.258479C19.9821 0.0878466 20.4216 0 20.8656 0C21.3096 0 21.7492 0.0878466 22.1591 0.258479C22.569 0.429111 22.941 0.679157 23.2539 0.994212ZM20.8598 3.35976L20.8514 3.3648L15.6286 8.59753C15.5234 8.70051 15.4583 8.83751 15.4447 8.9841C15.4312 9.13069 15.4702 9.27731 15.5548 9.39779L15.5615 9.40282L15.679 9.52026C15.7396 9.57993 15.8118 9.62651 15.8912 9.6571C15.9706 9.68769 16.0554 9.70165 16.1403 9.6981H16.1521C17.1814 9.64964 18.2082 9.83592 19.1549 10.2428C20.1016 10.6498 20.9433 11.2667 21.6164 12.0469C22.6851 13.2865 23.2729 14.8687 23.2729 16.5053C23.2729 18.142 22.6851 19.7242 21.6164 20.9638C21.0057 21.6719 20.2556 22.2466 19.413 22.652C18.5703 23.0574 17.6532 23.2848 16.7188 23.3201C15.7843 23.3553 14.8527 23.1977 13.9819 22.8569C13.1111 22.5162 12.3198 21.9997 11.6575 21.3396L11.6457 21.3279L11.6357 21.3161C10.9644 20.6285 10.4439 19.8084 10.1073 18.9083C9.77078 18.0082 9.62563 17.0478 9.68114 16.0884V16.0582C9.68532 15.9811 9.6733 15.9039 9.64585 15.8317C9.6184 15.7594 9.57613 15.6937 9.52176 15.6388L9.51169 15.6288L9.49995 15.617C9.44266 15.5588 9.37436 15.5126 9.29904 15.4811C9.22372 15.4495 9.14288 15.4333 9.06123 15.4333C8.97957 15.4333 8.89873 15.4495 8.82341 15.4811C8.74809 15.5126 8.6798 15.5588 8.62251 15.617L3.36623 20.8833L3.35952 20.8917L3.35784 20.895L3.35616 20.9017V20.9068L3.35952 20.9101L3.36623 20.9202L13.1607 30.7314C14.1137 31.6877 14.1137 33.2144 13.1607 34.1706C12.8834 34.4502 12.5415 34.6572 12.1652 34.7734C11.7889 34.8895 11.3899 34.9113 11.0032 34.8367C10.4245 34.7412 9.83097 34.7947 9.27859 34.9919C8.7262 35.1891 8.23311 35.5237 7.84572 35.9641C7.30362 36.5936 7.00448 37.3961 7.00232 38.2268C7.00017 39.0575 7.29515 39.8616 7.83398 40.4939C8.14333 40.8544 8.52402 41.1486 8.95205 41.3547C9.38008 41.5608 9.84617 41.676 10.3209 41.6931C10.7957 41.7101 11.2688 41.6286 11.7105 41.4536C12.1522 41.2787 12.5529 41.0142 12.8873 40.6767C13.2713 40.2915 13.5591 39.821 13.727 39.3035C13.8949 38.786 13.9383 38.2362 13.8536 37.6988L13.8503 37.6753L13.8469 37.6535C13.7936 37.2776 13.8285 36.8944 13.9488 36.5342C14.069 36.1741 14.2714 35.8468 14.5398 35.5782L14.5734 35.5447C15.5297 34.5884 17.0597 34.5884 18.016 35.5447L27.7417 45.2904L27.7468 45.2938L27.7501 45.2971H27.7535L27.7568 45.2988H27.7602L27.7619 45.2971L27.7703 45.2904L32.993 40.0577C33.0517 39.9995 33.0984 39.9302 33.1302 39.8539C33.162 39.7776 33.1784 39.6958 33.1784 39.6131C33.1784 39.5304 33.162 39.4486 33.1302 39.3722C33.0984 39.2959 33.0517 39.2267 32.993 39.1685L32.9594 39.1349C32.8986 39.0751 32.8261 39.0284 32.7464 38.9978C32.6668 38.9672 32.5816 38.9533 32.4964 38.9571H32.4863C31.457 39.0056 30.4302 38.8193 29.4835 38.4124C28.5368 38.0054 27.6951 37.3885 27.022 36.6083C25.9533 35.3687 25.3655 33.7865 25.3655 32.1499C25.3655 30.5132 25.9533 28.931 27.022 27.6914C27.6333 26.984 28.3836 26.4101 29.2262 26.0053C30.0689 25.6005 30.9859 25.3735 31.9201 25.3384C32.8543 25.3033 33.7857 25.4609 34.6564 25.8013C35.527 26.1417 36.3183 26.6578 36.9809 27.3173L36.9859 27.3206C37.6708 27.9992 38.2013 28.8175 38.5415 29.7196C38.8817 30.6217 39.0235 31.5865 38.9573 32.5483C38.9523 32.6358 38.9658 32.7233 38.997 32.8051C39.0283 32.8869 39.0765 32.9612 39.1385 33.0231C39.1957 33.0813 39.264 33.1275 39.3394 33.159C39.4147 33.1906 39.4955 33.2068 39.5772 33.2068C39.6588 33.2068 39.7397 33.1906 39.815 33.159C39.8903 33.1275 39.9586 33.0813 40.0159 33.0231L45.289 27.74L45.2957 27.7316L45.2973 27.7283V27.7249L45.299 27.7216V27.7166L45.2957 27.7132L45.289 27.7048L35.5112 17.9087C35.2845 17.6834 35.1045 17.4155 34.9817 17.1204C34.859 16.8253 34.7957 16.5088 34.7957 16.1891C34.7957 15.8695 34.859 15.553 34.9817 15.2578C35.1045 14.9627 35.2845 14.6948 35.5112 14.4695C35.7886 14.1899 36.1305 13.9829 36.5067 13.8668C36.883 13.7506 37.2821 13.7288 37.6688 13.8034C38.2085 13.8941 38.7622 13.8546 39.2836 13.6883C39.805 13.522 40.2793 13.2336 40.6669 12.8471C41.0017 12.5112 41.264 12.1101 41.4373 11.6686C41.6107 11.2271 41.6915 10.7547 41.6746 10.2807C41.6578 9.8067 41.5437 9.34121 41.3395 8.91314C41.1352 8.48506 40.8452 8.10353 40.4873 7.79224C39.1703 6.71012 37.2108 6.72858 35.9474 7.82579C35.5035 8.20958 35.1652 8.70058 34.9646 9.25207C34.764 9.80356 34.7079 10.3972 34.8016 10.9765L34.8049 10.9983L34.8083 11.0201C34.9039 11.7331 34.7059 12.5049 34.1154 13.0954L34.0818 13.129C33.1255 14.0853 31.5971 14.0853 30.6408 13.129L20.9017 3.38996L20.8799 3.36815L20.8715 3.35976H20.8681L20.8648 3.35641L20.8598 3.35976Z" fill="black"/>
</svg>
