<svg width="50" height="50" viewBox="0 0 50 50" fill="none" xmlns="http://www.w3.org/2000/svg">
<path opacity="0.5" d="M43.5687 12.2687C44.2707 13.3187 44.2707 14.7812 44.2707 17.7083V44.2708H45.3124C45.7268 44.2708 46.1242 44.4354 46.4173 44.7284C46.7103 45.0215 46.8749 45.4189 46.8749 45.8333C46.8749 46.2477 46.7103 46.6451 46.4173 46.9381C46.1242 47.2312 45.7268 47.3958 45.3124 47.3958H3.64575C3.23135 47.3958 2.83392 47.2312 2.5409 46.9381C2.24787 46.6451 2.08325 46.2477 2.08325 45.8333C2.08325 45.4189 2.24787 45.0215 2.5409 44.7284C2.83392 44.4354 3.23135 44.2708 3.64575 44.2708H4.68742V17.7083C4.68742 14.7812 4.68742 13.3187 5.3895 12.2687C5.69358 11.8136 6.08435 11.4228 6.5395 11.1187C7.45825 10.5041 11.8249 10.427 14.077 10.4187C14.0701 11.0257 14.0673 11.6576 14.0687 12.3145V15.1041H8.85408C8.43968 15.1041 8.04226 15.2687 7.74923 15.5618C7.4562 15.8548 7.29158 16.2522 7.29158 16.6666C7.29158 17.081 7.4562 17.4785 7.74923 17.7715C8.04226 18.0645 8.43968 18.2291 8.85408 18.2291H14.0687V21.3541H8.85408C8.43968 21.3541 8.04226 21.5187 7.74923 21.8118C7.4562 22.1048 7.29158 22.5022 7.29158 22.9166C7.29158 23.331 7.4562 23.7285 7.74923 24.0215C8.04226 24.3145 8.43968 24.4791 8.85408 24.4791H14.0687V27.6041H8.85408C8.43968 27.6041 8.04226 27.7687 7.74923 28.0618C7.4562 28.3548 7.29158 28.7522 7.29158 29.1666C7.29158 29.581 7.4562 29.9785 7.74923 30.2715C8.04226 30.5645 8.43968 30.7291 8.85408 30.7291H14.0687V44.2708H34.902V30.7291H40.1041C40.5185 30.7291 40.9159 30.5645 41.2089 30.2715C41.502 29.9785 41.6666 29.581 41.6666 29.1666C41.6666 28.7522 41.502 28.3548 41.2089 28.0618C40.9159 27.7687 40.5185 27.6041 40.1041 27.6041H34.902V24.4791H40.1041C40.5185 24.4791 40.9159 24.3145 41.2089 24.0215C41.502 23.7285 41.6666 23.331 41.6666 22.9166C41.6666 22.5022 41.502 22.1048 41.2089 21.8118C40.9159 21.5187 40.5185 21.3541 40.1041 21.3541H34.902V18.2291H40.1041C40.5185 18.2291 40.9159 18.0645 41.2089 17.7715C41.502 17.4785 41.6666 17.081 41.6666 16.6666C41.6666 16.2522 41.502 15.8548 41.2089 15.5618C40.9159 15.2687 40.5185 15.1041 40.1041 15.1041H34.902V12.3125C34.9034 11.6583 34.9006 11.0263 34.8937 10.4166C37.1457 10.427 41.4978 10.5041 42.4187 11.1187C42.8738 11.4228 43.2646 11.8136 43.5687 12.2687Z" fill="black"/>
<path fill-rule="evenodd" clip-rule="evenodd" d="M22.3957 4.16663H26.5624C30.4916 4.16663 32.4541 4.16663 33.6749 5.38746C34.8957 6.60829 34.8957 8.57079 34.8957 12.5V44.2708H45.3124C45.7268 44.2708 46.1242 44.4354 46.4173 44.7284C46.7103 45.0215 46.8749 45.4189 46.8749 45.8333C46.8749 46.2477 46.7103 46.6451 46.4173 46.9381C46.1242 47.2312 45.7268 47.3958 45.3124 47.3958H3.64575C3.23135 47.3958 2.83392 47.2312 2.5409 46.9381C2.24787 46.6451 2.08325 46.2477 2.08325 45.8333C2.08325 45.4189 2.24787 45.0215 2.5409 44.7284C2.83392 44.4354 3.23135 44.2708 3.64575 44.2708H14.0624V12.5C14.0624 8.57079 14.0624 6.60829 15.2832 5.38746C16.5041 4.16663 18.4666 4.16663 22.3957 4.16663ZM24.4791 38.0208C24.8935 38.0208 25.2909 38.1854 25.5839 38.4784C25.877 38.7715 26.0416 39.1689 26.0416 39.5833V44.2708H22.9166V39.5833C22.9166 39.1689 23.0812 38.7715 23.3742 38.4784C23.6673 38.1854 24.0647 38.0208 24.4791 38.0208ZM20.3124 29.1666C19.898 29.1666 19.5006 29.3312 19.2076 29.6243C18.9145 29.9173 18.7499 30.3147 18.7499 30.7291C18.7499 31.1435 18.9145 31.5409 19.2076 31.834C19.5006 32.127 19.898 32.2916 20.3124 32.2916H28.6457C29.0601 32.2916 29.4576 32.127 29.7506 31.834C30.0436 31.5409 30.2082 31.1435 30.2082 30.7291C30.2082 30.3147 30.0436 29.9173 29.7506 29.6243C29.4576 29.3312 29.0601 29.1666 28.6457 29.1666H20.3124ZM18.7499 24.4791C18.7499 24.0647 18.9145 23.6673 19.2076 23.3743C19.5006 23.0812 19.898 22.9166 20.3124 22.9166H28.6457C29.0601 22.9166 29.4576 23.0812 29.7506 23.3743C30.0436 23.6673 30.2082 24.0647 30.2082 24.4791C30.2082 24.8935 30.0436 25.291 29.7506 25.584C29.4576 25.877 29.0601 26.0416 28.6457 26.0416H20.3124C19.898 26.0416 19.5006 25.877 19.2076 25.584C18.9145 25.291 18.7499 24.8935 18.7499 24.4791ZM20.3124 17.7083C19.898 17.7083 19.5006 17.8729 19.2076 18.1659C18.9145 18.459 18.7499 18.8564 18.7499 19.2708C18.7499 19.6852 18.9145 20.0826 19.2076 20.3756C19.5006 20.6687 19.898 20.8333 20.3124 20.8333H28.6457C29.0601 20.8333 29.4576 20.6687 29.7506 20.3756C30.0436 20.0826 30.2082 19.6852 30.2082 19.2708C30.2082 18.8564 30.0436 18.459 29.7506 18.1659C29.4576 17.8729 29.0601 17.7083 28.6457 17.7083H20.3124ZM18.7499 13.0208C18.7499 12.6064 18.9145 12.209 19.2076 11.9159C19.5006 11.6229 19.898 11.4583 20.3124 11.4583H28.6457C29.0601 11.4583 29.4576 11.6229 29.7506 11.9159C30.0436 12.209 30.2082 12.6064 30.2082 13.0208C30.2082 13.4352 30.0436 13.8326 29.7506 14.1256C29.4576 14.4187 29.0601 14.5833 28.6457 14.5833H20.3124C19.898 14.5833 19.5006 14.4187 19.2076 14.1256C18.9145 13.8326 18.7499 13.4352 18.7499 13.0208Z" fill="black"/>
</svg>
