<svg width="50" height="50" viewBox="0 0 50 50" fill="none" xmlns="http://www.w3.org/2000/svg">
<path d="M36.4312 1.2771V16.1729C35.7979 17.4084 34.9083 18.8063 33.2979 20.0209C31.5021 21.3709 28.625 22.6313 23.8062 22.9209C18.4875 23.2417 14.0979 20.525 12.8875 19.3438C11.6562 18.1417 9.92915 18.2959 8.80415 19.2104C7.74165 20.075 7.26457 21.4646 7.26457 22.9188C7.26457 24.4334 7.41248 25.8417 7.81457 27.1334C7.27482 26.9149 6.68727 26.8416 6.1104 26.9209C5.37357 27.0276 4.69791 27.3905 4.20207 27.9459C3.3479 28.8875 3.0979 30.1792 3.0979 31.25C3.0979 40.0792 13.6146 51.5979 30.8541 45.7229L30.9041 45.7063L30.9521 45.6854C40.1708 42.0209 44.8187 36.3834 46.7625 30.6229C48.6104 25.1375 47.9333 19.7896 46.8479 16.3396V4.74793L36.4312 1.2771ZM18.2396 30.4688C15.1667 29.4959 13.5687 28.5563 12.6854 27.5334C11.9375 26.6646 11.5104 25.5021 11.4417 23.5104C14.0167 25.3042 18.6458 27.4063 24.0562 27.0792C27.4041 26.8792 30.0937 26.2521 32.2646 25.35C30.975 27.1917 29.6187 28.4709 28.2479 29.3354C25.3104 31.1896 21.95 31.3563 18.2396 30.4688ZM42.6812 7.7521V17.0063L42.7896 17.325C43.7271 20.1438 44.3604 24.7042 42.8125 29.2896C41.3021 33.7688 37.6271 38.5354 29.4604 41.7959C14.9437 46.7146 7.46873 37.2604 7.26873 31.4875C10.1937 32.8292 13.4854 33.6146 16.2479 34.2771L17.1916 34.5021C21.5875 35.5688 26.2396 35.5313 30.4729 32.8563C34.6583 30.2167 38.0479 25.2375 40.5062 17.2813L40.5979 16.9813V7.05835L42.6812 7.7521Z" fill="black"/>
</svg>
