<svg width="50" height="50" viewBox="0 0 50 50" fill="none" xmlns="http://www.w3.org/2000/svg">
<path d="M17.1232 11.7601C13.3103 11.7567 9.18062 12.3766 3.83608 13.4937C4.10816 14.622 4.51939 15.8072 4.98804 16.9428C15.712 14.3888 22.2585 15.3193 28.4122 17.8633C28.8057 16.5713 29.4446 15.3815 30.2333 14.375C25.39 12.5781 21.4575 11.764 17.1233 11.7601H17.1232ZM35.3722 13.1381C34.7267 13.1366 34.1615 13.2348 33.7138 13.4678C33.6367 13.5342 33.5787 13.6086 33.5445 13.6826C35.357 14.1418 37.0781 14.6343 38.5848 15.2088C39.088 14.7876 39.6375 14.4236 40.2287 14.1319C38.5042 13.5977 36.756 13.1415 35.372 13.1383L35.3722 13.1381ZM2.0271 13.6325C1.94019 15.5513 1.45317 16.0505 1.90132 19.4036C2.2812 22.2454 3.37544 26.4752 7.93198 30.0559C7.58853 28.6443 7.42808 27.2957 7.48403 25.786C6.23345 24.4179 5.02642 22.4819 3.25864 17.3968C2.70884 16.0878 2.39595 14.8203 2.027 13.6324L2.0271 13.6325ZM42.9983 15.0788C41.5372 15.0972 40.136 15.8599 39.021 17.0263C37.6996 18.4087 36.7046 20.3852 36.2638 22.6731C35.8228 24.9609 36.0141 27.1536 36.7311 28.9078C37.3147 30.3357 38.2863 31.5069 39.5708 32.0652H39.5709C39.9981 32.2576 40.305 32.3863 40.7428 32.3841C42.4073 32.5889 44.0329 31.7872 45.2929 30.469C46.6145 29.0864 47.609 27.11 48.05 24.8222C48.491 22.5345 48.3 20.3417 47.5833 18.5876C46.8662 16.8334 45.5633 15.4663 43.8147 15.1475C43.5454 15.0983 43.272 15.0754 42.9983 15.0789V15.0788ZM31.9542 15.1005C30.96 16.2587 30.1485 17.7973 29.8565 19.4052C32.1614 20.5569 33.9022 22.6237 34.5167 24.7208C34.5311 23.9117 34.6128 23.0987 34.7608 22.2989C35.1479 20.2042 35.9803 18.1939 37.2487 16.5923C35.6911 16.051 33.8685 15.5649 31.9543 15.1004L31.9542 15.1005ZM43.0921 16.8334C43.223 16.8367 43.3533 16.8501 43.4821 16.8734C44.5104 17.0609 45.388 17.8842 45.9513 19.2621C46.5146 20.6402 46.7037 22.5215 46.321 24.5068C45.9384 26.4922 45.0616 28.1792 44.0235 29.2652C42.9852 30.3512 41.8604 30.8094 40.8321 30.6219C39.8038 30.4344 38.9261 29.6109 38.3629 28.2329C37.7997 26.855 37.6108 24.9738 37.9935 22.9885C38.3762 21.0031 39.2527 19.3162 40.2909 18.2302C41.1993 17.28 42.1737 16.8102 43.0921 16.8335V16.8334ZM18.2279 19.0139C16.9867 19.0256 15.9457 19.1931 15.157 19.524C12.4496 20.6605 10.6517 22.333 9.71812 24.2035C13.0267 25.3602 14.6601 26.2475 20.0542 26.5256C20.9449 23.943 22.6995 21.5666 25.4605 20.1055C22.6851 19.3716 20.2025 18.9951 18.2278 19.014L18.2279 19.0139ZM44.8097 19.6394C43.7615 25.0357 42.2142 26.6807 40.3001 28.9158C41.9864 29.0875 43.5998 28.0111 44.347 25.1779C44.7543 23.6338 44.8876 23.3042 44.8099 19.6393L44.8097 19.6394ZM28.1518 20.9005L28.1454 20.9026C26.6405 20.8786 25.1922 21.6504 24.046 22.8492C22.7246 24.2317 21.7296 26.2081 21.2888 28.496C20.848 30.7839 21.0391 32.9767 21.7561 34.7308C22.0413 35.4284 22.4192 36.0645 22.8808 36.5979C23.4087 37.2474 24.0289 37.7174 24.7125 37.9692C24.9759 38.0525 25.2799 38.1255 25.5246 38.1709C27.2732 38.4898 28.9965 37.6748 30.318 36.2923C31.6395 34.9098 32.6341 32.9332 33.0751 30.6453C33.0961 30.4996 33.1288 30.3897 33.1451 30.248C33.4918 28.1045 33.2835 26.063 32.6082 24.4106C32.0424 23.0264 31.1117 21.8837 29.885 21.3063C29.8116 21.2701 29.7365 21.2354 29.6599 21.202V21.2081C29.3952 21.1013 29.1204 21.0217 28.8396 20.9704C28.6147 20.9295 28.387 20.9069 28.1584 20.9027L28.1518 20.9005ZM28.1171 22.6563C28.2479 22.6596 28.3783 22.673 28.507 22.6964C29.5353 22.8839 30.413 23.7074 30.9762 25.0854C31.5395 26.4634 31.7285 28.3445 31.3459 30.3299C30.9632 32.3152 30.0865 34.0021 29.0483 35.0881C28.0101 36.174 26.8855 36.6323 25.8571 36.4448C24.8287 36.2573 23.9511 35.4341 23.3878 34.0561C22.8247 32.678 22.6359 30.7968 23.0184 28.8114C23.4009 26.8261 24.2777 25.1392 25.3158 24.0532C26.2242 23.103 27.1988 22.6333 28.1171 22.6563ZM30.2138 25.8299C29.1654 31.2264 27.6181 32.8711 25.7041 35.1062C27.3904 35.2781 29.0036 34.2017 29.7507 31.3684C30.158 29.8243 30.2915 29.4947 30.2136 25.8299H30.2138ZM9.22163 25.8904C9.16274 27.2629 9.31343 28.4493 9.65054 29.7519L9.70093 29.7279C12.0818 31.3344 16.6721 32.9185 19.5024 32.8748C19.3432 31.8636 19.3012 30.8055 19.3859 29.7381C19.4259 29.2419 19.4939 28.7485 19.5897 28.26C14.334 27.9454 12.3429 26.9849 9.22173 25.8905L9.22163 25.8904ZM35.0312 28.6297C35.0224 29.5597 34.9265 30.424 34.7778 31.1594C35.3924 31.4093 36.0206 31.624 36.6596 31.8025C36.0143 30.9967 35.5217 30.0685 35.1766 29.0799C35.125 28.9309 35.0765 28.7808 35.0313 28.6297H35.0312ZM10.9814 32.5652C11.4634 33.1305 12.0285 33.6654 12.6791 34.157C15.5165 36.3019 18.4017 37.1143 21.4093 37.5701C21.0181 37.0645 20.6803 36.5008 20.4005 35.8965C20.216 35.498 20.0563 35.0801 19.9191 34.6481C16.7089 34.589 13.7228 33.7864 10.9813 32.5651L10.9814 32.5652Z" fill="black"/>
</svg>
