<svg width="50" height="50" viewBox="0 0 50 50" fill="none" xmlns="http://www.w3.org/2000/svg">
<path d="M41.5722 11.5479C37.2598 7.26127 31.4503 4.81834 25.3704 4.73499C19.2905 4.65164 13.4162 6.93439 8.98789 11.1012C4.5596 15.268 1.92399 20.9927 1.63761 27.0664C1.35122 33.1401 3.43648 39.0874 7.45305 43.6524L7.47063 43.6719C7.50286 43.7061 7.53313 43.7413 7.56829 43.7745C7.64055 43.8565 7.72258 43.9493 7.81926 44.046C8.19842 44.4489 8.65667 44.7693 9.16535 44.9871C9.67402 45.2048 10.2222 45.3152 10.7755 45.3114C11.3288 45.3075 11.8753 45.1895 12.3809 44.9647C12.8865 44.7399 13.3403 44.4132 13.7138 44.0049C15.151 42.443 16.8965 41.1962 18.8402 40.3434C20.7838 39.4905 22.8833 39.0502 25.0058 39.0502C27.1283 39.0502 29.2277 39.4905 31.1714 40.3434C33.115 41.1962 34.8606 42.443 36.2978 44.0049C36.6741 44.4153 37.1315 44.7431 37.641 44.9675C38.1505 45.1919 38.7011 45.3081 39.2579 45.3086C39.8147 45.3092 40.3655 45.1941 40.8755 44.9707C41.3855 44.7473 41.8435 44.4204 42.2206 44.0108L42.5341 43.669L42.5517 43.6495C46.5092 39.1806 48.6119 33.3697 48.4304 27.4031C48.2489 21.4365 45.797 15.7641 41.5751 11.544L41.5722 11.5479ZM23.4374 12.5001C23.4374 12.0857 23.602 11.6882 23.8951 11.3952C24.1881 11.1022 24.5855 10.9376 24.9999 10.9376C25.4143 10.9376 25.8118 11.1022 26.1048 11.3952C26.3978 11.6882 26.5624 12.0857 26.5624 12.5001V15.6251C26.5624 16.0395 26.3978 16.4369 26.1048 16.7299C25.8118 17.0229 25.4143 17.1876 24.9999 17.1876C24.5855 17.1876 24.1881 17.0229 23.8951 16.7299C23.602 16.4369 23.4374 16.0395 23.4374 15.6251V12.5001ZM12.4999 29.6876H9.37493C8.96053 29.6876 8.5631 29.5229 8.27007 29.2299C7.97705 28.9369 7.81243 28.5395 7.81243 28.1251C7.81243 27.7107 7.97705 27.3132 8.27007 27.0202C8.5631 26.7272 8.96053 26.5626 9.37493 26.5626H12.4999C12.9143 26.5626 13.3118 26.7272 13.6048 27.0202C13.8978 27.3132 14.0624 27.7107 14.0624 28.1251C14.0624 28.5395 13.8978 28.9369 13.6048 29.2299C13.3118 29.5229 12.9143 29.6876 12.4999 29.6876ZM17.2656 20.3907C16.9726 20.6835 16.5753 20.848 16.1611 20.848C15.7468 20.848 15.3496 20.6835 15.0566 20.3907L12.8466 18.1817C12.5535 17.8886 12.3889 17.4912 12.3889 17.0767C12.3889 16.6623 12.5535 16.2648 12.8466 15.9717C13.1397 15.6787 13.5371 15.514 13.9516 15.514C14.366 15.514 14.7635 15.6787 15.0566 15.9717L17.2656 18.1817C17.5584 18.4747 17.7228 18.872 17.7228 19.2862C17.7228 19.7004 17.5584 20.0977 17.2656 20.3907ZM31.8456 22.6465L27.207 30.0196C27.0172 30.2826 26.7864 30.5134 26.5234 30.7032C25.8884 31.1461 25.1044 31.3208 24.3415 31.1893C23.5785 31.0578 22.8982 30.6307 22.4483 30.0007C21.9983 29.3707 21.8149 28.5887 21.9379 27.8243C22.0609 27.06 22.4805 26.375 23.1054 25.918L30.4784 21.2794C30.646 21.1625 30.8454 21.0999 31.0497 21.0999C31.254 21.0999 31.4534 21.1625 31.621 21.2794C31.8315 21.4313 31.9733 21.6604 32.0154 21.9166C32.0575 22.1728 31.9964 22.4352 31.8456 22.6465ZM34.9433 20.3907C34.6479 20.6713 34.2545 20.8255 33.8471 20.8203C33.4396 20.8151 33.0504 20.6509 32.7622 20.3628C32.4741 20.0746 32.3099 19.6853 32.3047 19.2779C32.2995 18.8705 32.4536 18.4771 32.7343 18.1817L34.9433 15.9717C35.2363 15.6787 35.6338 15.514 36.0483 15.514C36.4627 15.514 36.8602 15.6787 37.1532 15.9717C37.4463 16.2648 37.6109 16.6623 37.6109 17.0767C37.6109 17.4912 37.4463 17.8886 37.1532 18.1817L34.9433 20.3907ZM40.6249 29.6876H37.4999C37.0855 29.6876 36.6881 29.5229 36.3951 29.2299C36.102 28.9369 35.9374 28.5395 35.9374 28.1251C35.9374 27.7107 36.102 27.3132 36.3951 27.0202C36.6881 26.7272 37.0855 26.5626 37.4999 26.5626H40.6249C41.0393 26.5626 41.4368 26.7272 41.7298 27.0202C42.0228 27.3132 42.1874 27.7107 42.1874 28.1251C42.1874 28.5395 42.0228 28.9369 41.7298 29.2299C41.4368 29.5229 41.0393 29.6876 40.6249 29.6876Z" fill="black"/>
</svg>
