<svg width="50" height="50" viewBox="0 0 50 50" fill="none" xmlns="http://www.w3.org/2000/svg">
<path d="M31.8646 40.7543L33.3334 45.8334M35.4167 33.3334L43.2459 37.7042M39.5834 26.0417L45.8875 24.7959M16.6667 18.7501V4.16675M15.8542 13.1251C14.4051 12.4447 12.7501 12.3463 11.2306 12.8503C9.71113 13.3542 8.44292 14.422 7.68752 15.8334L4.81252 21.6459C4.13841 23.0928 4.04341 24.7427 4.547 26.2573C5.05059 27.772 6.11462 29.0366 7.52085 29.7918L21.875 37.2855C22.1197 37.408 22.3862 37.4811 22.6591 37.5005C22.9321 37.52 23.2062 37.4855 23.4659 37.3991C23.7255 37.3126 23.9655 37.1758 24.1723 36.9965C24.3791 36.8173 24.5485 36.599 24.6709 36.3543L31.1417 23.4147C31.3884 22.9207 31.4289 22.3489 31.2543 21.8251C31.0797 21.3012 30.7042 20.8681 30.2104 20.6209L15.8542 13.1251Z" stroke="black" stroke-width="2" stroke-linecap="round" stroke-linejoin="round"/>
</svg>
