<svg width="50" height="50" viewBox="0 0 50 50" fill="none" xmlns="http://www.w3.org/2000/svg">
<path d="M22.5199 9.36046L23.0157 11.9261H26.9845L27.4803 9.36046C27.9761 11.0709 28.9688 14.8011 28.9688 16.0323C30.7876 15.8615 34.3261 14.5948 33.9292 10.9C33.9292 10.3865 33.5313 9.15421 31.9449 8.33337C36.4084 9.36046 45.4365 14.2875 45.8334 25.7855C42.8574 23.9032 36.7063 22.5 35.9126 31.9448C34.0938 28.8646 29.8615 24.348 27.4803 30.9178C26.6532 33.8261 25.0001 40.4646 25.0001 43.75C25.0001 40.4646 23.347 33.8261 22.5199 30.9178C20.1386 24.348 15.9053 28.8657 14.0876 31.9448C13.2938 22.5 7.14279 23.9032 4.16675 25.7855C4.56362 14.2875 13.5917 9.36046 18.0553 8.33337C16.4688 9.15421 16.0709 10.3865 16.0709 10.9C15.6751 14.5959 19.2126 15.8615 21.0313 16.0323C21.0313 14.8011 22.024 11.0709 22.5199 9.36046Z" fill="black" stroke="black" stroke-width="2" stroke-linecap="round" stroke-linejoin="round"/>
</svg>
