<svg width="50" height="50" viewBox="0 0 50 50" fill="none" xmlns="http://www.w3.org/2000/svg">
<path d="M29.204 1.87246C29.0389 1.87278 28.8741 1.87614 28.7095 1.88252C23.0112 2.10517 17.8853 5.9789 16.3329 11.7724L14.8319 17.3735L19.1657 18.5347L20.5912 13.2147C21.8635 8.46689 26.7424 5.64414 31.4816 6.91396C36.2209 8.18379 39.0058 13.1757 37.7625 17.8157L36.3369 23.1358L40.6709 24.297L42.1717 18.6959C44.033 11.7491 39.8377 4.24306 32.7091 2.33301C31.5374 2.01914 30.3608 1.87031 29.204 1.87246ZM12.2274 18.5651L6.57861 39.6465L36.9603 47.7873L42.609 26.706L12.2276 18.565L12.2274 18.5651ZM24.2643 24.3294L32.8536 29.3161L31.5284 34.3923L25.3712 30.2868L24.2103 39.738L24.0976 39.7243C24.0956 39.7507 24.0942 39.7774 24.091 39.8034C24.0156 40.4171 23.6464 40.8528 22.9023 41.1535C22.1585 41.4543 21.0609 41.5278 19.8576 41.2053C18.6542 40.883 17.6037 40.2358 16.9162 39.5018C16.2289 38.7677 15.9357 37.9891 16.0109 37.3753C16.0864 36.7615 16.4557 36.3257 17.1997 36.025C17.5718 35.8746 18.0321 35.7812 18.5499 35.7654C19.0678 35.7498 19.6431 35.8119 20.2447 35.9731C21.184 36.2248 22.0292 36.6747 22.6822 37.209L24.2645 24.3294H24.2643Z" fill="black"/>
</svg>
