<svg width="50" height="50" viewBox="0 0 50 50" fill="none" xmlns="http://www.w3.org/2000/svg">
<path d="M26.1376 16.7063C26.6086 16.2361 27.1677 15.8634 27.7829 15.6095C28.3982 15.3556 29.0574 15.2255 29.723 15.2267C30.3885 15.2278 31.0473 15.3602 31.6617 15.6162C32.276 15.8723 32.8338 16.2469 33.3032 16.7188C35.2782 18.6938 35.2938 21.9032 33.3157 23.8844C32.8447 24.3546 32.2855 24.7273 31.6703 24.9812C31.0551 25.2351 30.3958 25.3652 29.7303 25.364C29.0647 25.3629 28.4059 25.2305 27.7916 24.9744C27.1773 24.7184 26.6195 24.3437 26.1501 23.8719C25.6782 23.4025 25.3036 22.8447 25.0475 22.2304C24.7915 21.616 24.6591 20.9572 24.658 20.2917C24.6568 19.6261 24.7869 18.9669 25.0408 18.3517C25.2947 17.7364 25.6674 17.1773 26.1376 16.7063ZM31.0907 18.925C30.9113 18.7439 30.698 18.6 30.4629 18.5015C30.2278 18.403 29.9756 18.3519 29.7208 18.351C29.4659 18.3501 29.2133 18.3996 28.9776 18.4964C28.7419 18.5933 28.5275 18.7358 28.3469 18.9157C28.1673 19.0965 28.0251 19.3109 27.9285 19.5468C27.8318 19.7826 27.7827 20.0352 27.7839 20.2901C27.785 20.545 27.8365 20.7971 27.9352 21.0321C28.034 21.2671 28.1782 21.4802 28.3594 21.6594C28.5386 21.8407 28.7518 21.9849 28.9867 22.0836C29.2217 22.1824 29.4738 22.2338 29.7287 22.235C29.9836 22.2362 30.2362 22.187 30.4721 22.0904C30.7079 21.9938 30.9224 21.8516 31.1032 21.6719C31.2828 21.4911 31.4251 21.2766 31.5217 21.0408C31.6183 20.8049 31.6675 20.5523 31.6663 20.2974C31.6651 20.0426 31.6137 19.7904 31.5149 19.5554C31.4162 19.3205 31.272 19.1042 31.0907 18.925ZM23.4407 34.3907L23.9626 34.9094C25.1813 36.1313 26.9094 36.5375 28.4688 36.1282L31.1251 38.7844C31.4181 39.0773 31.8154 39.2419 32.2298 39.2419C32.6441 39.2419 33.0414 39.0773 33.3344 38.7844L36.6907 35.4282C37.6624 34.4554 38.2806 33.1853 38.4465 31.8203C38.6124 30.4554 38.3167 29.0742 37.6063 27.8969L39.3251 26.1782C41.2814 24.222 42.6637 21.7667 43.3216 19.0795C43.9795 16.3923 43.8877 13.5762 43.0563 10.9375C42.7616 10.0045 42.2465 9.15617 41.5546 8.46428C40.8627 7.77239 40.0144 7.25729 39.0813 6.96253C36.4431 6.13176 33.6276 6.04034 30.941 6.6982C28.2544 7.35607 25.7997 8.73804 23.8438 10.6938L22.1251 12.4125C20.9468 11.701 19.5641 11.4049 18.1978 11.5714C16.8315 11.7379 15.5604 12.3576 14.5876 13.3313L11.2376 16.6844C11.0921 16.8295 10.9766 17.002 10.8978 17.1918C10.8191 17.3816 10.7785 17.5851 10.7785 17.7907C10.7785 17.9962 10.8191 18.1997 10.8978 18.3895C10.9766 18.5793 11.0921 18.7518 11.2376 18.8969L13.8938 21.5532C13.6862 22.3448 13.6894 23.1771 13.9032 23.9671C14.117 24.7571 14.534 25.4774 15.1126 26.0563L15.6344 26.5782L13.2188 28.0219C13.0147 28.1438 12.841 28.3107 12.7112 28.5099C12.5813 28.7091 12.4986 28.9353 12.4693 29.1713C12.4401 29.4072 12.4651 29.6468 12.5425 29.8716C12.6198 30.0965 12.7475 30.3007 12.9157 30.4688L19.5501 37.1032C19.7181 37.2714 19.9224 37.399 20.1472 37.4764C20.3721 37.5537 20.6116 37.5787 20.8476 37.5495C21.0836 37.5203 21.3098 37.4376 21.5089 37.3077C21.7081 37.1778 21.875 37.0042 21.9969 36.8L23.4407 34.3907ZM40.0751 11.875C40.7334 13.9674 40.8055 16.2002 40.2838 18.3307C39.762 20.4612 38.6663 22.408 37.1157 23.9594L28.3813 32.6938C28.0883 32.9867 27.691 33.1513 27.2766 33.1513C26.8623 33.1513 26.465 32.9867 26.1719 32.6938L24.2469 30.7688L24.2344 30.7563L19.2594 25.7844L19.2469 25.7719L17.3219 23.8438C17.029 23.5508 16.8645 23.1534 16.8645 22.7391C16.8645 22.3248 17.029 21.9274 17.3219 21.6344L26.0563 12.9063C27.608 11.3551 29.5553 10.259 31.6865 9.73727C33.8176 9.2155 36.051 9.28801 38.1438 9.94691C38.5972 10.091 39.0092 10.342 39.3453 10.6786C39.6814 11.0152 39.9317 11.4277 40.0751 11.8813M15.1532 37.0813C15.4466 36.7883 15.6116 36.3908 15.6119 35.9761C15.6122 35.5615 15.4477 35.1637 15.1548 34.8703C14.8618 34.5769 14.4642 34.412 14.0496 34.4117C13.635 34.4114 13.2372 34.5758 12.9438 34.8688L8.81882 38.9938C8.67355 39.1388 8.55827 39.3111 8.47957 39.5007C8.40087 39.6904 8.36029 39.8936 8.36014 40.0989C8.35985 40.5136 8.52428 40.9113 8.81726 41.2047C9.11024 41.4981 9.50777 41.6631 9.9224 41.6634C10.1277 41.6635 10.331 41.6232 10.5208 41.5448C10.7105 41.4664 10.8829 41.3514 11.0282 41.2063L15.1532 37.0813ZM11.8344 31.5532C12.1274 31.8462 12.2919 32.2435 12.2919 32.6578C12.2919 33.0722 12.1274 33.4695 11.8344 33.7625L10.1782 35.4188C10.0338 35.5678 9.86127 35.6866 9.67052 35.7682C9.47978 35.8498 9.27469 35.8926 9.06723 35.8941C8.85977 35.8956 8.65408 35.8558 8.46218 35.7769C8.27027 35.6981 8.09599 35.5818 7.94949 35.4349C7.803 35.288 7.68723 35.1134 7.60894 34.9213C7.53064 34.7292 7.4914 34.5234 7.49349 34.3159C7.49558 34.1084 7.53896 33.9035 7.62111 33.713C7.70326 33.5225 7.82252 33.3502 7.97195 33.2063L9.6282 31.5532C9.92108 31.2612 10.3178 31.0972 10.7313 31.0972C11.1449 31.0972 11.5416 31.2612 11.8344 31.5532ZM18.4688 40.3969C18.6181 40.2528 18.7371 40.0804 18.819 39.8897C18.9009 39.6991 18.944 39.4941 18.9458 39.2866C18.9476 39.0791 18.908 38.8734 18.8295 38.6814C18.7509 38.4893 18.6349 38.3149 18.4882 38.1682C18.3415 38.0215 18.167 37.9054 17.975 37.8269C17.783 37.7483 17.5772 37.7088 17.3698 37.7106C17.1623 37.7124 16.9573 37.7555 16.7666 37.8374C16.576 37.9193 16.4036 38.0383 16.2594 38.1875L14.6032 39.8438C14.4581 39.9891 14.3431 40.1615 14.2647 40.3512C14.1862 40.5409 14.1459 40.7443 14.1461 40.9496C14.1464 41.3642 14.3114 41.7617 14.6048 42.0547C14.8982 42.3477 15.2959 42.5121 15.7106 42.5118C16.1252 42.5115 16.5227 42.3466 16.8157 42.0532L18.4688 40.3969Z" fill="black"/>
</svg>
