<svg width="50" height="50" viewBox="0 0 50 50" fill="none" xmlns="http://www.w3.org/2000/svg">
<g clip-path="url(#clip0_278_127)">
<path fill-rule="evenodd" clip-rule="evenodd" d="M39.8749 20.3791C40.498 19.5571 41.4131 19.0059 42.4312 18.8396C42.6395 18.4646 42.7853 18.0687 43.0145 17.6958C43.8478 16.2396 44.7812 14.8458 45.6145 13.3896C45.6145 13.3896 45.9895 13.0146 46.2812 12.6812H45.677C44.8957 12.4416 44.0728 12.3708 43.2645 12.4729C42.8531 12.5739 42.4868 12.8083 42.2228 13.1396L41.5145 14.1812L40.6853 15.7604C40.6445 15.8563 40.5851 15.9432 40.5105 16.0161C40.436 16.0889 40.3478 16.1464 40.251 16.1851C40.1543 16.2238 40.0508 16.243 39.9465 16.2416C39.8423 16.2403 39.7394 16.2183 39.6437 16.1771C39.4537 16.0906 39.3056 15.9327 39.2314 15.7377C39.1573 15.5426 39.1632 15.3261 39.2478 15.1354L39.9145 13.3896L40.6228 12.0166C41.0656 11.2729 41.747 10.7009 42.5562 10.3937C43.6306 10.088 44.7546 9.99596 45.8645 10.1229C46.5339 10.1368 47.1923 10.2271 47.8395 10.3937C48.3707 10.5604 48.8228 10.9146 49.1103 11.3937C49.225 11.6156 49.2849 11.8617 49.2849 12.1114C49.2849 12.3612 49.225 12.6073 49.1103 12.8291C48.6992 13.5486 48.2478 14.2416 47.7562 14.9083C46.6124 16.3437 45.3853 17.7166 44.2624 19.0687C44.8874 19.4229 46.3416 19.5896 47.0291 21.2521C47.1931 21.6846 47.2576 22.1485 47.2179 22.6094C47.1783 23.0703 47.0354 23.5164 46.7999 23.9146C46.5891 24.4899 46.2428 25.006 45.7902 25.419C45.3376 25.8321 44.7921 26.13 44.1999 26.2875C43.0432 26.4124 41.8808 26.1085 40.9332 25.4333C40.5069 25.1937 40.1368 24.8657 39.8476 24.4714C39.5584 24.077 39.3569 23.6254 39.2564 23.1468C39.156 22.6682 39.1591 22.1736 39.2654 21.6963C39.3717 21.219 39.5809 20.7699 39.8749 20.3791ZM42.3249 23.1666C42.738 23.503 43.2507 23.6934 43.7832 23.7083C44.3853 23.7083 44.6562 23.1041 44.8207 22.8333C44.9853 22.5625 45.2582 22.0833 45.0707 21.7521C44.6812 21.1187 44.0874 20.6333 43.3874 20.3791C42.7624 20.3791 40.4541 22.1896 42.3249 23.1666ZM22.7124 29.4479C21.0174 28.5323 19.4735 27.3609 18.1353 25.975C16.7381 24.6074 15.566 23.0275 14.6624 21.2937C14.1485 20.2521 13.718 19.1778 13.3707 18.0708C12.8937 16.4687 12.5624 14.8458 12.1874 13.2229C11.5571 10.8513 11.3595 8.38545 11.6041 5.94372C12.5832 -0.400027 16.7416 -0.235443 18.3853 0.16039C21.1387 1.10359 23.574 2.79707 25.4166 5.04997C26.7478 6.69164 28.6416 7.12914 30.1999 8.43956C30.6791 8.82011 31.1166 9.24303 31.5124 9.70831C32.2846 10.6291 32.9152 11.6598 33.3832 12.7666C33.8041 13.8844 34.0296 15.0662 34.0499 16.2604C34.0499 17.1146 33.8832 18.05 33.8624 18.9646C33.8416 19.2632 33.8416 19.5618 33.8624 19.8604C33.907 20.0168 33.9774 20.1647 34.0707 20.2979C34.5082 20.9208 35.1937 21.5229 35.5249 22.1062C36.1852 23.2734 36.4069 24.638 36.1499 25.9541C35.0249 31.7166 28.5999 32.5896 22.7124 29.4479ZM33.8416 23.2083C33.4874 22.6875 32.8207 22.2083 32.3624 21.6687V21.5021C31.7603 21.2312 31.1582 20.9812 30.5541 20.6687C29.9499 20.3583 29.6166 20.1083 29.1395 19.8187C28.4742 19.3368 27.7812 18.8993 27.0603 18.5062C26.8545 18.4522 26.6781 18.3196 26.569 18.1369C26.46 17.9542 26.4269 17.736 26.477 17.5291C26.5309 17.3283 26.6616 17.1567 26.8409 17.0515C27.0202 16.9462 27.2337 16.9158 27.4353 16.9666C28.3903 17.0383 29.3328 17.2272 30.2416 17.5291C30.6235 17.6541 30.9916 17.8139 31.3457 18.0083L31.6582 18.2375C31.6903 17.6414 31.6903 17.044 31.6582 16.4479C31.5988 15.5431 31.3802 14.6559 31.0124 13.8271C30.6395 12.9312 30.1041 12.1125 29.4291 11.4146C28.6374 10.4937 27.6791 9.73122 26.602 9.16664C26.6228 9.40275 26.6228 9.63886 26.602 9.87497C26.5603 10.3264 26.477 10.7701 26.352 11.2062C26.0613 12.2002 25.6268 13.1463 25.0624 14.0146C24.9984 14.158 24.8931 14.2792 24.7599 14.3627C24.6268 14.4461 24.4718 14.488 24.3147 14.4831C24.1577 14.4782 24.0056 14.4267 23.878 14.3351C23.7503 14.2435 23.6528 14.1159 23.5978 13.9687C23.526 13.7746 23.529 13.5608 23.6062 13.3687C23.7338 12.8758 23.8312 12.3756 23.8978 11.8708V10.3958C23.8978 9.89581 23.8978 9.43747 24.002 8.95831C24.1062 8.47914 24.127 7.83539 24.1687 7.29581C23.9242 7.07358 23.695 6.83747 23.4812 6.58747C22.0727 4.59216 20.1355 3.0294 17.8874 2.07497C17.2383 1.83928 16.5278 1.83471 15.8758 2.06206C15.2237 2.2894 14.6701 2.73473 14.3082 3.32289C13.8978 4.24581 13.6374 5.22914 13.5374 6.23539C13.4733 8.43291 13.805 10.624 14.5166 12.7041C14.9749 14.2646 15.4124 15.8229 15.9312 17.3416C16.2569 18.3126 16.6538 19.2582 17.1187 20.1708C18.0621 21.9426 19.2752 23.557 20.7145 24.9562C22.1347 26.4151 23.7958 27.6182 25.6249 28.5125C26.4374 28.8666 33.7791 31.8812 34.4853 25.7458C34.6028 24.8223 34.3726 23.8881 33.8395 23.125L33.8416 23.2083Z" fill="black"/>
<path fill-rule="evenodd" clip-rule="evenodd" d="M26.7896 25.1021C25.648 25.2045 24.5102 24.8694 23.6063 24.1646C22.102 22.9253 20.7848 21.4749 19.6959 19.8584C18.6404 18.1795 17.9334 16.3056 17.6167 14.348C17.5183 13.6201 17.5995 12.8792 17.8534 12.1899C18.1072 11.5006 18.5259 10.884 19.0729 10.3938C19.5121 10.0622 20.0528 9.8933 20.6026 9.9161C21.1525 9.9389 21.6773 10.1519 22.0875 10.5188C22.2352 10.624 22.3384 10.7805 22.3769 10.9577C22.4154 11.1349 22.3865 11.3201 22.2959 11.4771C22.1936 11.6339 22.0334 11.7439 21.8503 11.7829C21.6672 11.8219 21.4761 11.7869 21.3188 11.6855C21.212 11.604 21.0886 11.5469 20.9573 11.5184C20.8261 11.4899 20.6901 11.4905 20.5592 11.5203C20.4282 11.5501 20.3054 11.6084 20.1994 11.6909C20.0934 11.7735 20.0068 11.8783 19.9459 11.998C19.7906 12.2928 19.6959 12.6158 19.6673 12.9478C19.6387 13.2798 19.6767 13.6142 19.7792 13.9313C19.9597 14.5619 20.1959 15.1716 20.4875 15.7605C20.9153 16.6869 21.4 17.5813 21.9417 18.4438C22.8291 19.9498 23.8906 21.3462 25.1042 22.6042C25.5285 23.0358 26.1015 23.2892 26.7063 23.3126C26.9867 23.3359 27.2681 23.28 27.5182 23.151C27.7684 23.0221 27.9772 22.8254 28.1209 22.5834C28.1634 22.4893 28.2243 22.4047 28.3002 22.3346C28.376 22.2645 28.4651 22.2103 28.5623 22.1753C28.6595 22.1404 28.7627 22.1253 28.8658 22.1309C28.9689 22.1366 29.0698 22.163 29.1625 22.2084C29.3485 22.2992 29.4928 22.4576 29.5659 22.6512C29.6391 22.8447 29.6356 23.0589 29.5563 23.2501C29.3126 23.7852 28.9246 24.2419 28.436 24.569C27.9473 24.8961 27.3773 25.0807 26.7896 25.1021Z" fill="black"/>
<path fill-rule="evenodd" clip-rule="evenodd" d="M1.95189 23.0833C2.67044 21.5307 3.66426 20.1212 4.88522 18.9228C6.96647 16.7395 9.23314 14.9291 9.64981 9.95826C9.65963 9.77732 9.73844 9.60701 9.87 9.4824C10.0016 9.35778 10.1759 9.28833 10.3571 9.28833C10.5383 9.28833 10.7126 9.35778 10.8442 9.4824C10.9758 9.60701 11.0546 9.77732 11.0644 9.95826C11.1327 11.5519 10.9427 13.1461 10.5019 14.6791C9.54687 17.0602 8.13329 19.2305 6.34147 21.0666C5.0403 22.5499 4.11939 24.3273 3.65814 26.2458C3.35189 27.5624 3.18314 28.9083 3.15814 30.2603C3.10764 31.6261 3.39382 32.9833 3.99147 34.2124C4.49147 35.2583 5.19981 36.1916 6.07064 36.9583C6.4083 35.2171 7.22254 33.6037 8.42272 32.2978C9.94212 30.5684 12.0015 29.4032 14.2665 28.9916C16.4069 28.6372 18.5952 28.6938 20.7144 29.1583C20.8044 29.1665 20.8919 29.1923 20.9719 29.2344C21.052 29.2764 21.1229 29.3338 21.1807 29.4032C21.2386 29.4727 21.2822 29.5528 21.3091 29.6391C21.3359 29.7254 21.3455 29.8162 21.3373 29.9062C21.3291 29.9962 21.3032 30.0837 21.2612 30.1637C21.2192 30.2437 21.1618 30.3147 21.0924 30.3725C21.0229 30.4304 20.9427 30.474 20.8564 30.5008C20.7701 30.5277 20.6794 30.5373 20.5894 30.5291C18.654 30.5291 16.729 30.8374 14.8915 31.4458C13.5865 31.8656 12.3472 32.4674 11.2102 33.2333C9.99148 34.0333 8.97897 35.1083 8.25606 36.3749C8.0255 36.7263 7.86578 37.1083 7.77689 37.5208C7.79746 37.6337 7.7932 37.7498 7.76442 37.861C7.73564 37.9721 7.68303 38.0757 7.61022 38.1645C7.61022 38.1645 7.79772 38.0395 7.90189 38.0395L18.3019 37.727C21.4019 37.727 24.5436 37.5812 27.5998 37.727C32.2602 37.727 36.8977 38.1853 41.5581 38.477C41.7201 38.5078 41.8662 38.5942 41.9714 38.7212C42.0765 38.8483 42.134 39.008 42.134 39.1728C42.134 39.3377 42.0765 39.4974 41.9714 39.6244C41.8662 39.7515 41.7201 39.8378 41.5581 39.8687L39.1665 39.9728C39.4608 41.022 39.6012 42.1083 39.5831 43.1978C39.5206 43.9631 39.3956 44.7187 39.2081 45.4645C38.9998 46.2978 38.7498 47.0895 38.5206 47.8978L41.579 48.0853C41.671 48.0853 41.7622 48.1038 41.847 48.1396C41.9318 48.1754 42.0085 48.228 42.0726 48.294C42.1367 48.3601 42.1869 48.4384 42.2202 48.5242C42.2535 48.61 42.2693 48.7017 42.2665 48.7937C42.2696 48.8866 42.2532 48.9791 42.2184 49.0653C42.1836 49.1515 42.1312 49.2295 42.0645 49.2942C41.9978 49.359 41.9183 49.409 41.8311 49.4412C41.7439 49.4734 41.6509 49.487 41.5581 49.4812C36.8977 49.627 32.2602 49.9374 27.5998 49.9999C24.5227 49.9999 21.3602 49.8958 18.3019 49.8333C15.8686 49.7083 13.4144 49.4999 10.9811 49.3749L7.88106 49.3749C7.68156 49.3604 7.49494 49.2709 7.35872 49.1245C7.22251 48.978 7.14678 48.7854 7.14678 48.5853C7.14678 48.3853 7.22251 48.1927 7.35872 48.0462C7.49494 47.8997 7.68156 47.8103 7.88106 47.7958L10.7936 47.7958C10.6686 46.9416 10.5436 46.0874 10.4811 45.2166V43.7791C10.4975 43.3055 10.5462 42.8336 10.6269 42.3666C10.811 41.5427 11.0405 40.7297 11.3144 39.9312H7.96439C7.86161 39.9368 7.75876 39.9217 7.66188 39.887C7.56501 39.8522 7.47609 39.7983 7.40036 39.7286C7.32463 39.6589 7.26363 39.5747 7.22096 39.4811C7.17828 39.3874 7.1548 39.2862 7.15189 39.1833C7.14213 39.0078 7.20202 38.8356 7.31856 38.7041L7.17272 38.8083H7.02689C6.97537 38.8985 6.90612 38.9774 6.82332 39.0403C6.74052 39.1031 6.64587 39.1485 6.54506 39.1738C6.44425 39.1991 6.33937 39.2038 6.23671 39.1875C6.13406 39.1712 6.03576 39.1343 5.94772 39.0791C4.36936 38.1123 3.07095 36.75 2.18106 35.127C1.33106 33.6541 0.839389 32.002 0.745639 30.302C0.594224 27.8352 1.0054 25.3663 1.95189 23.0833ZM12.979 43.677C12.979 44.1353 12.979 44.5916 12.8123 45.0499C12.7081 45.8812 12.5623 46.6708 12.4373 47.4833L18.2415 47.3166C21.3415 47.3166 24.4831 47.1916 27.5394 47.3166C30.5956 47.4416 33.6144 47.5458 36.6519 47.7541C36.5797 46.7277 36.5797 45.7013 36.6519 44.6749C36.6519 43.9458 36.8186 43.2395 36.9436 42.5937C37.0686 41.9478 37.3373 40.9103 37.4415 40.0562C34.1331 40.202 30.8269 40.3478 27.5186 40.3895C24.2123 40.4312 21.279 40.3895 18.2206 40.2228C16.4123 40.2228 14.6227 40.0145 12.8123 39.9103C12.8123 40.7437 12.9581 41.577 12.9998 42.4499C13.0206 42.8041 12.9998 43.2395 12.979 43.677Z" fill="black"/>
</g>
<defs>
<clipPath id="clip0_278_127">
<rect width="50" height="50" fill="white" transform="matrix(-1 0 0 1 50 0)"/>
</clipPath>
</defs>
</svg>
