<svg width="20" height="20" viewBox="0 0 20 20" fill="none" xmlns="http://www.w3.org/2000/svg">
<path d="M16.1299 5.38007L7.03791 8.00007H16.4979C16.6305 8.00007 16.7577 8.05275 16.8515 8.14652C16.9452 8.24029 16.9979 8.36747 16.9979 8.50007V15.5001C16.9979 16.1631 16.7345 16.799 16.2657 17.2678C15.7968 17.7367 15.1609 18.0001 14.4979 18.0001H5.49791C4.83521 17.9995 4.19984 17.7359 3.73143 17.2671C3.26302 16.7984 2.99991 16.1628 2.99991 15.5001V8.57107L2.74291 7.67807C2.65192 7.36257 2.62398 7.03224 2.66068 6.70594C2.69738 6.37964 2.798 6.06377 2.9568 5.77636C3.11559 5.48895 3.32945 5.23564 3.58615 5.0309C3.84286 4.82615 4.13738 4.67398 4.45291 4.58307L13.0999 2.09007C13.4154 1.99909 13.7457 1.97115 14.072 2.00785C14.3983 2.04455 14.7142 2.14517 15.0016 2.30397C15.289 2.46276 15.5423 2.67662 15.7471 2.93332C15.9518 3.19003 16.104 3.48455 16.1949 3.80007L16.4719 4.76007C16.4903 4.82324 16.496 4.8894 16.4887 4.95478C16.4814 5.02015 16.4613 5.08345 16.4296 5.14104C16.3978 5.19864 16.355 5.2494 16.3035 5.29041C16.2521 5.33143 16.1931 5.3619 16.1299 5.38007ZM3.83991 7.88007L4.44691 7.70507L5.88891 5.21007L4.72891 5.54507C4.34702 5.65525 4.02447 5.91249 3.8321 6.26029C3.63973 6.6081 3.59327 7.01804 3.70291 7.40007L3.83991 7.88007ZM5.83191 7.30607L7.95191 6.69407L9.39491 4.19707L7.26991 4.81007L7.24891 4.85207L5.83191 7.30607ZM11.4589 5.68407L12.9009 3.18607L10.7749 3.79907L10.7489 3.85207L9.33891 6.29507L11.4589 5.68407ZM14.1429 3.03207L14.1229 3.06807L12.8439 5.28407L15.3709 4.55607L15.2319 4.07607C15.1587 3.82125 15.0193 3.59039 14.8278 3.40699C14.6363 3.2236 14.4006 3.09424 14.1429 3.03207Z" fill="white"/>
</svg>
