<svg width="181" height="16" viewBox="0 0 181 16" fill="none" xmlns="http://www.w3.org/2000/svg">
<path d="M17.88 0.84V1.24C17.4533 1.25333 17.1333 1.30667 16.92 1.4C16.7067 1.48 16.56 1.64 16.48 1.88C16.4133 2.10667 16.38 2.46667 16.38 2.96V12.88C16.38 13.36 16.4133 13.72 16.48 13.96C16.56 14.2 16.7067 14.36 16.92 14.44C17.1333 14.52 17.4533 14.5733 17.88 14.6V15C17.5067 14.9733 17.0333 14.96 16.46 14.96C15.9 14.9467 15.3267 14.94 14.74 14.94C14.1 14.94 13.5 14.9467 12.94 14.96C12.38 14.96 11.9267 14.9733 11.58 15V14.6C12.0333 14.5733 12.3733 14.52 12.6 14.44C12.84 14.36 13 14.2 13.08 13.96C13.16 13.72 13.2 13.36 13.2 12.88V2.06H13.34L8.38 15.02H8.06L2.66 2.14V11.72C2.66 12.4533 2.7 13.02 2.78 13.42C2.86 13.8067 3.03333 14.0867 3.3 14.26C3.58 14.42 4.01333 14.5333 4.6 14.6V15C4.34667 14.9733 4.01333 14.96 3.6 14.96C3.18667 14.9467 2.8 14.94 2.44 14.94C2.13333 14.94 1.82 14.9467 1.5 14.96C1.18 14.96 0.913333 14.9733 0.7 15V14.6C1.12667 14.5333 1.44667 14.42 1.66 14.26C1.87333 14.1 2.01333 13.84 2.08 13.48C2.16 13.1067 2.2 12.6 2.2 11.96V2.96C2.2 2.46667 2.16 2.10667 2.08 1.88C2.01333 1.64 1.86667 1.48 1.64 1.4C1.42667 1.30667 1.11333 1.25333 0.7 1.24V0.84C0.913333 0.853333 1.18 0.866666 1.5 0.879999C1.82 0.893333 2.13333 0.899999 2.44 0.899999C3.01333 0.899999 3.57333 0.893333 4.12 0.879999C4.68 0.866666 5.17333 0.853333 5.6 0.84L9.8 10.98L9.3 11.44L13.32 0.899999C13.5467 0.899999 13.78 0.899999 14.02 0.899999C14.26 0.899999 14.5 0.899999 14.74 0.899999C15.3267 0.899999 15.9 0.893333 16.46 0.879999C17.0333 0.866666 17.5067 0.853333 17.88 0.84ZM21.2352 12.2C21.7552 12.2 22.1685 12.34 22.4752 12.62C22.7818 12.8867 22.9352 13.26 22.9352 13.74C22.9352 14.22 22.7818 14.6 22.4752 14.88C22.1685 15.1467 21.7552 15.28 21.2352 15.28C20.7152 15.28 20.3018 15.1467 19.9952 14.88C19.6885 14.6 19.5352 14.22 19.5352 13.74C19.5352 13.26 19.6885 12.8867 19.9952 12.62C20.3018 12.34 20.7152 12.2 21.2352 12.2ZM35.0861 0.84C35.0328 1.52 34.9928 2.17333 34.9661 2.8C34.9528 3.42667 34.9461 3.90667 34.9461 4.24C34.9461 4.53333 34.9528 4.81333 34.9661 5.08C34.9794 5.34667 34.9928 5.57333 35.0061 5.76H34.5461C34.3328 4.64 34.0594 3.75333 33.7261 3.1C33.4061 2.44667 33.0194 1.98667 32.5661 1.72C32.1128 1.44 31.5794 1.3 30.9661 1.3H30.5061V12.72C30.5061 13.2533 30.5594 13.6533 30.6661 13.92C30.7861 14.1867 30.9994 14.3667 31.3061 14.46C31.6128 14.54 32.0594 14.5867 32.6461 14.6V15C32.2328 14.9867 31.6794 14.9733 30.9861 14.96C30.3061 14.9467 29.5928 14.94 28.8461 14.94C28.1128 14.94 27.4194 14.9467 26.7661 14.96C26.1128 14.9733 25.5861 14.9867 25.1861 15V14.6C25.7861 14.5867 26.2394 14.54 26.5461 14.46C26.8528 14.3667 27.0594 14.1867 27.1661 13.92C27.2728 13.6533 27.3261 13.2533 27.3261 12.72V1.3H26.8861C26.2728 1.3 25.7394 1.44 25.2861 1.72C24.8328 1.98667 24.4461 2.44667 24.1261 3.1C23.8061 3.74 23.5261 4.62667 23.2861 5.76H22.8261C22.8528 5.57333 22.8661 5.34667 22.8661 5.08C22.8794 4.81333 22.8861 4.53333 22.8861 4.24C22.8861 3.90667 22.8728 3.42667 22.8461 2.8C22.8328 2.17333 22.7994 1.52 22.7461 0.84C23.3594 0.853333 24.0261 0.866666 24.7461 0.879999C25.4794 0.893333 26.2128 0.899999 26.9461 0.899999C27.6794 0.899999 28.3394 0.899999 28.9261 0.899999C29.5261 0.899999 30.1861 0.899999 30.9061 0.899999C31.6394 0.899999 32.3728 0.893333 33.1061 0.879999C33.8394 0.866666 34.4994 0.853333 35.0861 0.84ZM47.7447 0.559999C48.6247 0.559999 49.3447 0.693332 49.9047 0.96C50.478 1.21333 50.9847 1.51333 51.4247 1.86C51.6914 2.06 51.8914 2.08667 52.0247 1.94C52.1714 1.78 52.2714 1.41333 52.3247 0.84H52.7847C52.758 1.36 52.738 1.99333 52.7247 2.74C52.7114 3.47333 52.7047 4.45333 52.7047 5.68H52.2447C52.178 5.06667 52.0914 4.54667 51.9847 4.12C51.878 3.68 51.7314 3.29333 51.5447 2.96C51.358 2.62667 51.0914 2.32667 50.7447 2.06C50.4114 1.72667 50.0247 1.48 49.5847 1.32C49.1447 1.16 48.6847 1.08 48.2047 1.08C47.4847 1.08 46.8714 1.27333 46.3647 1.66C45.858 2.03333 45.4447 2.54667 45.1247 3.2C44.818 3.85333 44.5914 4.59333 44.4447 5.42C44.298 6.23333 44.2247 7.08 44.2247 7.96C44.2247 8.85333 44.298 9.71333 44.4447 10.54C44.6047 11.3533 44.8447 12.08 45.1647 12.72C45.498 13.36 45.9247 13.8667 46.4447 14.24C46.9647 14.6133 47.578 14.8 48.2847 14.8C48.7247 14.8 49.1647 14.72 49.6047 14.56C50.058 14.3867 50.4447 14.14 50.7647 13.82C51.2847 13.42 51.638 12.9267 51.8247 12.34C52.0114 11.74 52.1514 10.9467 52.2447 9.96H52.7047C52.7047 11.2267 52.7114 12.2533 52.7247 13.04C52.738 13.8133 52.758 14.4667 52.7847 15H52.3247C52.2714 14.4267 52.178 14.0667 52.0447 13.92C51.9247 13.7733 51.718 13.7933 51.4247 13.98C50.9314 14.3267 50.4047 14.6333 49.8447 14.9C49.298 15.1533 48.5914 15.28 47.7247 15.28C46.3114 15.28 45.0714 14.9933 44.0047 14.42C42.9514 13.8467 42.1314 13.02 41.5447 11.94C40.958 10.86 40.6647 9.56 40.6647 8.04C40.6647 6.54667 40.9647 5.24 41.5647 4.12C42.178 3 43.0114 2.12667 44.0647 1.5C45.1314 0.873332 46.358 0.559999 47.7447 0.559999ZM60.7663 0.84V1.24C60.3396 1.25333 60.0129 1.30667 59.7862 1.4C59.5729 1.48 59.4329 1.64 59.3663 1.88C59.2996 2.10667 59.2663 2.46667 59.2663 2.96V12.88C59.2663 13.36 59.2996 13.72 59.3663 13.96C59.4463 14.2 59.5929 14.36 59.8063 14.44C60.0196 14.52 60.3396 14.5733 60.7663 14.6V15C60.4063 14.9733 59.9529 14.96 59.4063 14.96C58.8596 14.9467 58.3063 14.94 57.7463 14.94C57.0929 14.94 56.4863 14.9467 55.9263 14.96C55.3796 14.96 54.9329 14.9733 54.5863 15V14.6C55.0129 14.5733 55.3329 14.52 55.5463 14.44C55.7596 14.36 55.8996 14.2 55.9663 13.96C56.0463 13.72 56.0863 13.36 56.0863 12.88V2.96C56.0863 2.46667 56.0463 2.10667 55.9663 1.88C55.8996 1.64 55.7529 1.48 55.5263 1.4C55.3129 1.30667 54.9996 1.25333 54.5863 1.24V0.84C54.9329 0.853333 55.3796 0.866666 55.9263 0.879999C56.4863 0.893333 57.0929 0.899999 57.7463 0.899999C58.3063 0.899999 58.8596 0.893333 59.4063 0.879999C59.9529 0.866666 60.4063 0.853333 60.7663 0.84ZM75.2858 0.84V1.24C74.8591 1.29333 74.5391 1.40667 74.3258 1.58C74.1124 1.74 73.9658 2 73.8858 2.36C73.8191 2.72 73.7858 3.22667 73.7858 3.88V15.04C73.6258 15.0267 73.4591 15.02 73.2858 15.02C73.1258 15.02 72.9524 15.0267 72.7658 15.04L64.0858 4.04V11.72C64.0858 12.4533 64.1258 13.02 64.2058 13.42C64.2858 13.8067 64.4591 14.0867 64.7258 14.26C65.0058 14.42 65.4391 14.5333 66.0258 14.6V15C65.7724 14.9733 65.4391 14.96 65.0258 14.96C64.6124 14.9467 64.2258 14.94 63.8658 14.94C63.5591 14.94 63.2458 14.9467 62.9258 14.96C62.6058 14.96 62.3391 14.9733 62.1258 15V14.6C62.5524 14.5333 62.8724 14.42 63.0858 14.26C63.2991 14.1 63.4391 13.84 63.5058 13.48C63.5858 13.1067 63.6258 12.6 63.6258 11.96V2.96C63.6258 2.46667 63.5858 2.10667 63.5058 1.88C63.4391 1.64 63.2924 1.48 63.0658 1.4C62.8524 1.30667 62.5391 1.25333 62.1258 1.24V0.84C62.3391 0.853333 62.6058 0.866666 62.9258 0.879999C63.2458 0.893333 63.5591 0.899999 63.8658 0.899999C64.1858 0.899999 64.4924 0.893333 64.7858 0.879999C65.0791 0.866666 65.3458 0.853333 65.5858 0.84L73.3258 10.38V4.12C73.3258 3.38667 73.2858 2.82667 73.2058 2.44C73.1258 2.04 72.9458 1.75333 72.6658 1.58C72.3991 1.40667 71.9724 1.29333 71.3858 1.24V0.84C71.6391 0.853333 71.9724 0.866666 72.3858 0.879999C72.7991 0.893333 73.1858 0.899999 73.5458 0.899999C73.8658 0.899999 74.1791 0.893333 74.4858 0.879999C74.8058 0.866666 75.0724 0.853333 75.2858 0.84ZM87.2394 0.84C87.186 1.42667 87.146 1.99333 87.1194 2.54C87.106 3.08667 87.0994 3.50667 87.0994 3.8C87.0994 4.06667 87.106 4.32 87.1194 4.56C87.1327 4.8 87.146 5 87.1594 5.16H86.6994C86.566 4.18667 86.3594 3.42 86.0794 2.86C85.7994 2.28667 85.4327 1.88667 84.9794 1.66C84.5394 1.42 84.0194 1.3 83.4194 1.3H82.5994C82.2127 1.3 81.9194 1.33333 81.7194 1.4C81.5194 1.46667 81.386 1.6 81.3194 1.8C81.2527 2 81.2194 2.30667 81.2194 2.72V13.12C81.2194 13.5333 81.2527 13.84 81.3194 14.04C81.386 14.24 81.5194 14.3733 81.7194 14.44C81.9194 14.5067 82.2127 14.54 82.5994 14.54H83.5794C84.1794 14.54 84.706 14.4133 85.1594 14.16C85.626 13.8933 86.0194 13.4467 86.3394 12.82C86.6727 12.1933 86.926 11.3467 87.0994 10.28H87.5594C87.5194 10.7067 87.4994 11.2667 87.4994 11.96C87.4994 12.2667 87.506 12.7 87.5194 13.26C87.5327 13.82 87.5727 14.4 87.6394 15C86.9594 14.9733 86.1927 14.96 85.3394 14.96C84.486 14.9467 83.726 14.94 83.0594 14.94C82.726 14.94 82.2994 14.94 81.7794 14.94C81.2594 14.94 80.6994 14.9467 80.0994 14.96C79.4994 14.96 78.8927 14.9667 78.2794 14.98C77.666 14.98 77.086 14.9867 76.5394 15V14.6C76.966 14.5733 77.286 14.52 77.4994 14.44C77.7127 14.36 77.8527 14.2 77.9194 13.96C77.9994 13.72 78.0394 13.36 78.0394 12.88V2.96C78.0394 2.46667 77.9994 2.10667 77.9194 1.88C77.8527 1.64 77.706 1.48 77.4794 1.4C77.266 1.30667 76.9527 1.25333 76.5394 1.24V0.84C77.086 0.853333 77.666 0.866666 78.2794 0.879999C78.8927 0.879999 79.4994 0.886666 80.0994 0.899999C80.6994 0.899999 81.2594 0.899999 81.7794 0.899999C82.2994 0.899999 82.726 0.899999 83.0594 0.899999C83.6727 0.899999 84.366 0.899999 85.1394 0.899999C85.926 0.886666 86.626 0.866666 87.2394 0.84ZM84.1194 7.68C84.1194 7.68 84.1194 7.74667 84.1194 7.88C84.1194 8.01333 84.1194 8.08 84.1194 8.08H80.6194C80.6194 8.08 80.6194 8.01333 80.6194 7.88C80.6194 7.74667 80.6194 7.68 80.6194 7.68H84.1194ZM84.6994 5.04C84.646 5.8 84.6194 6.38 84.6194 6.78C84.6327 7.18 84.6394 7.54667 84.6394 7.88C84.6394 8.21333 84.646 8.58 84.6594 8.98C84.6727 9.38 84.706 9.96 84.7594 10.72H84.2994C84.2327 10.2533 84.106 9.82 83.9194 9.42C83.746 9.02 83.4927 8.7 83.1594 8.46C82.826 8.20667 82.3927 8.08 81.8594 8.08V7.68C82.2594 7.68 82.5994 7.6 82.8794 7.44C83.1594 7.26667 83.386 7.04667 83.5594 6.78C83.746 6.5 83.8927 6.20667 83.9994 5.9C84.106 5.59333 84.186 5.30667 84.2394 5.04H84.6994ZM106.415 0.84V1.24C105.988 1.25333 105.668 1.30667 105.455 1.4C105.242 1.48 105.095 1.64 105.015 1.88C104.948 2.10667 104.915 2.46667 104.915 2.96V12.88C104.915 13.36 104.948 13.72 105.015 13.96C105.095 14.2 105.242 14.36 105.455 14.44C105.668 14.52 105.988 14.5733 106.415 14.6V15C106.042 14.9733 105.568 14.96 104.995 14.96C104.435 14.9467 103.862 14.94 103.275 14.94C102.635 14.94 102.035 14.9467 101.475 14.96C100.915 14.96 100.462 14.9733 100.115 15V14.6C100.568 14.5733 100.908 14.52 101.135 14.44C101.375 14.36 101.535 14.2 101.615 13.96C101.695 13.72 101.735 13.36 101.735 12.88V2.06H101.875L96.9152 15.02H96.5952L91.1952 2.14V11.72C91.1952 12.4533 91.2352 13.02 91.3152 13.42C91.3952 13.8067 91.5685 14.0867 91.8352 14.26C92.1152 14.42 92.5485 14.5333 93.1352 14.6V15C92.8818 14.9733 92.5485 14.96 92.1352 14.96C91.7218 14.9467 91.3352 14.94 90.9752 14.94C90.6685 14.94 90.3552 14.9467 90.0352 14.96C89.7152 14.96 89.4485 14.9733 89.2352 15V14.6C89.6618 14.5333 89.9818 14.42 90.1952 14.26C90.4085 14.1 90.5485 13.84 90.6152 13.48C90.6952 13.1067 90.7352 12.6 90.7352 11.96V2.96C90.7352 2.46667 90.6952 2.10667 90.6152 1.88C90.5485 1.64 90.4018 1.48 90.1752 1.4C89.9618 1.30667 89.6485 1.25333 89.2352 1.24V0.84C89.4485 0.853333 89.7152 0.866666 90.0352 0.879999C90.3552 0.893333 90.6685 0.899999 90.9752 0.899999C91.5485 0.899999 92.1085 0.893333 92.6552 0.879999C93.2152 0.866666 93.7085 0.853333 94.1352 0.84L98.3352 10.98L97.8352 11.44L101.855 0.899999C102.082 0.899999 102.315 0.899999 102.555 0.899999C102.795 0.899999 103.035 0.899999 103.275 0.899999C103.862 0.899999 104.435 0.893333 104.995 0.879999C105.568 0.866666 106.042 0.853333 106.415 0.84ZM114.43 0.799999L119.29 13.32C119.477 13.8 119.684 14.1333 119.91 14.32C120.15 14.4933 120.364 14.5867 120.55 14.6V15C120.15 14.9733 119.677 14.96 119.13 14.96C118.597 14.9467 118.057 14.94 117.51 14.94C116.897 14.94 116.317 14.9467 115.77 14.96C115.224 14.96 114.79 14.9733 114.47 15V14.6C115.15 14.5733 115.577 14.46 115.75 14.26C115.937 14.0467 115.897 13.6 115.63 12.92L112.23 3.62L112.59 3.1L109.55 11.02C109.257 11.7533 109.077 12.3533 109.01 12.82C108.957 13.2867 108.99 13.6467 109.11 13.9C109.244 14.1533 109.45 14.3333 109.73 14.44C110.024 14.5333 110.37 14.5867 110.77 14.6V15C110.33 14.9733 109.91 14.96 109.51 14.96C109.11 14.9467 108.704 14.94 108.29 14.94C107.997 14.94 107.717 14.9467 107.45 14.96C107.197 14.96 106.97 14.9733 106.77 15V14.6C107.05 14.5467 107.337 14.3667 107.63 14.06C107.924 13.7533 108.21 13.2333 108.49 12.5L113.05 0.799999C113.264 0.813332 113.49 0.819999 113.73 0.819999C113.984 0.819999 114.217 0.813332 114.43 0.799999ZM115.83 9.24V9.64H109.87L110.07 9.24H115.83ZM136.458 0.84C136.405 1.44 136.365 2.02 136.338 2.58C136.325 3.14 136.318 3.57333 136.318 3.88C136.318 4.17333 136.325 4.45333 136.338 4.72C136.351 4.98667 136.365 5.21333 136.378 5.4H135.918C135.745 4.36 135.505 3.54667 135.198 2.96C134.891 2.36 134.511 1.93333 134.058 1.68C133.618 1.42667 133.091 1.3 132.478 1.3H131.818C131.431 1.3 131.138 1.33333 130.938 1.4C130.738 1.46667 130.605 1.6 130.538 1.8C130.471 2 130.438 2.30667 130.438 2.72V12.76C130.438 13.28 130.491 13.6667 130.598 13.92C130.705 14.1733 130.911 14.34 131.218 14.42C131.525 14.5 131.978 14.5467 132.578 14.56V15C132.165 14.9867 131.631 14.9733 130.978 14.96C130.325 14.9467 129.638 14.94 128.918 14.94C128.345 14.94 127.785 14.9467 127.238 14.96C126.691 14.9733 126.198 14.9867 125.758 15V14.6C126.185 14.5733 126.505 14.52 126.718 14.44C126.931 14.36 127.071 14.2 127.138 13.96C127.218 13.72 127.258 13.36 127.258 12.88V2.96C127.258 2.46667 127.218 2.10667 127.138 1.88C127.071 1.64 126.925 1.48 126.698 1.4C126.485 1.30667 126.171 1.25333 125.758 1.24V0.84C126.305 0.853333 126.885 0.866666 127.498 0.879999C128.111 0.879999 128.718 0.886666 129.318 0.899999C129.918 0.899999 130.478 0.899999 130.998 0.899999C131.518 0.899999 131.945 0.899999 132.278 0.899999C132.891 0.899999 133.585 0.899999 134.358 0.899999C135.145 0.886666 135.845 0.866666 136.458 0.84ZM133.478 7.76C133.478 7.76 133.478 7.82667 133.478 7.96C133.478 8.09333 133.478 8.16 133.478 8.16H129.838C129.838 8.16 129.838 8.09333 129.838 7.96C129.838 7.82667 129.838 7.76 129.838 7.76H133.478ZM133.978 5.12C133.925 5.88 133.898 6.46 133.898 6.86C133.911 7.26 133.918 7.62667 133.918 7.96C133.918 8.29333 133.925 8.66 133.938 9.06C133.951 9.46 133.985 10.04 134.038 10.8H133.578C133.498 10.3333 133.371 9.9 133.198 9.5C133.025 9.1 132.771 8.78 132.438 8.54C132.105 8.28667 131.671 8.16 131.138 8.16V7.76C131.538 7.76 131.871 7.68 132.138 7.52C132.418 7.34667 132.651 7.12667 132.838 6.86C133.025 6.58 133.171 6.28667 133.278 5.98C133.385 5.67333 133.465 5.38667 133.518 5.12H133.978ZM143.774 0.84V1.24C143.347 1.25333 143.021 1.30667 142.794 1.4C142.581 1.48 142.441 1.64 142.374 1.88C142.307 2.10667 142.274 2.46667 142.274 2.96V12.88C142.274 13.36 142.307 13.72 142.374 13.96C142.454 14.2 142.601 14.36 142.814 14.44C143.027 14.52 143.347 14.5733 143.774 14.6V15C143.414 14.9733 142.961 14.96 142.414 14.96C141.867 14.9467 141.314 14.94 140.754 14.94C140.101 14.94 139.494 14.9467 138.934 14.96C138.387 14.96 137.941 14.9733 137.594 15V14.6C138.021 14.5733 138.341 14.52 138.554 14.44C138.767 14.36 138.907 14.2 138.974 13.96C139.054 13.72 139.094 13.36 139.094 12.88V2.96C139.094 2.46667 139.054 2.10667 138.974 1.88C138.907 1.64 138.761 1.48 138.534 1.4C138.321 1.30667 138.007 1.25333 137.594 1.24V0.84C137.941 0.853333 138.387 0.866666 138.934 0.879999C139.494 0.893333 140.101 0.899999 140.754 0.899999C141.314 0.899999 141.867 0.893333 142.414 0.879999C142.961 0.866666 143.414 0.853333 143.774 0.84ZM151.414 0.84V1.24C150.96 1.25333 150.614 1.30667 150.374 1.4C150.147 1.48 149.994 1.64 149.914 1.88C149.834 2.10667 149.794 2.46667 149.794 2.96V13.12C149.794 13.5333 149.82 13.84 149.874 14.04C149.94 14.24 150.06 14.3733 150.234 14.44C150.42 14.5067 150.694 14.54 151.054 14.54H152.034C152.487 14.54 152.914 14.4333 153.314 14.22C153.714 14.0067 154.074 13.7067 154.394 13.32C154.714 12.92 154.98 12.4467 155.194 11.9C155.407 11.3533 155.567 10.7467 155.674 10.08H156.134C156.094 10.5333 156.074 11.12 156.074 11.84C156.074 12.1467 156.08 12.5933 156.094 13.18C156.107 13.7667 156.147 14.3733 156.214 15C155.534 14.9733 154.767 14.96 153.914 14.96C153.06 14.9467 152.3 14.94 151.634 14.94C151.3 14.94 150.874 14.94 150.354 14.94C149.834 14.94 149.274 14.9467 148.674 14.96C148.074 14.96 147.467 14.9667 146.854 14.98C146.24 14.98 145.66 14.9867 145.114 15V14.6C145.54 14.5733 145.86 14.52 146.074 14.44C146.287 14.36 146.427 14.2 146.494 13.96C146.574 13.72 146.614 13.36 146.614 12.88V2.96C146.614 2.46667 146.574 2.10667 146.494 1.88C146.427 1.64 146.28 1.48 146.054 1.4C145.84 1.30667 145.527 1.25333 145.114 1.24V0.84C145.447 0.853333 145.894 0.866666 146.454 0.879999C147.027 0.893333 147.634 0.899999 148.274 0.899999C148.86 0.899999 149.434 0.893333 149.994 0.879999C150.567 0.866666 151.04 0.853333 151.414 0.84ZM168.04 0.84C167.987 1.42667 167.947 1.99333 167.92 2.54C167.907 3.08667 167.9 3.50667 167.9 3.8C167.9 4.06667 167.907 4.32 167.92 4.56C167.933 4.8 167.947 5 167.96 5.16H167.5C167.367 4.18667 167.16 3.42 166.88 2.86C166.6 2.28667 166.233 1.88667 165.78 1.66C165.34 1.42 164.82 1.3 164.22 1.3H163.4C163.013 1.3 162.72 1.33333 162.52 1.4C162.32 1.46667 162.187 1.6 162.12 1.8C162.053 2 162.02 2.30667 162.02 2.72V13.12C162.02 13.5333 162.053 13.84 162.12 14.04C162.187 14.24 162.32 14.3733 162.52 14.44C162.72 14.5067 163.013 14.54 163.4 14.54H164.38C164.98 14.54 165.507 14.4133 165.96 14.16C166.427 13.8933 166.82 13.4467 167.14 12.82C167.473 12.1933 167.727 11.3467 167.9 10.28H168.36C168.32 10.7067 168.3 11.2667 168.3 11.96C168.3 12.2667 168.307 12.7 168.32 13.26C168.333 13.82 168.373 14.4 168.44 15C167.76 14.9733 166.993 14.96 166.14 14.96C165.287 14.9467 164.527 14.94 163.86 14.94C163.527 14.94 163.1 14.94 162.58 14.94C162.06 14.94 161.5 14.9467 160.9 14.96C160.3 14.96 159.693 14.9667 159.08 14.98C158.467 14.98 157.887 14.9867 157.34 15V14.6C157.767 14.5733 158.087 14.52 158.3 14.44C158.513 14.36 158.653 14.2 158.72 13.96C158.8 13.72 158.84 13.36 158.84 12.88V2.96C158.84 2.46667 158.8 2.10667 158.72 1.88C158.653 1.64 158.507 1.48 158.28 1.4C158.067 1.30667 157.753 1.25333 157.34 1.24V0.84C157.887 0.853333 158.467 0.866666 159.08 0.879999C159.693 0.879999 160.3 0.886666 160.9 0.899999C161.5 0.899999 162.06 0.899999 162.58 0.899999C163.1 0.899999 163.527 0.899999 163.86 0.899999C164.473 0.899999 165.167 0.899999 165.94 0.899999C166.727 0.886666 167.427 0.866666 168.04 0.84ZM164.92 7.68C164.92 7.68 164.92 7.74667 164.92 7.88C164.92 8.01333 164.92 8.08 164.92 8.08H161.42C161.42 8.08 161.42 8.01333 161.42 7.88C161.42 7.74667 161.42 7.68 161.42 7.68H164.92ZM165.5 5.04C165.447 5.8 165.42 6.38 165.42 6.78C165.433 7.18 165.44 7.54667 165.44 7.88C165.44 8.21333 165.447 8.58 165.46 8.98C165.473 9.38 165.507 9.96 165.56 10.72H165.1C165.033 10.2533 164.907 9.82 164.72 9.42C164.547 9.02 164.293 8.7 163.96 8.46C163.627 8.20667 163.193 8.08 162.66 8.08V7.68C163.06 7.68 163.4 7.6 163.68 7.44C163.96 7.26667 164.187 7.04667 164.36 6.78C164.547 6.5 164.693 6.20667 164.8 5.9C164.907 5.59333 164.987 5.30667 165.04 5.04H165.5ZM175.016 0.58C175.803 0.58 176.409 0.666666 176.836 0.84C177.263 0.999999 177.629 1.17333 177.936 1.36C178.096 1.45333 178.223 1.52667 178.316 1.58C178.423 1.62 178.523 1.64 178.616 1.64C178.749 1.64 178.843 1.56667 178.896 1.42C178.963 1.27333 179.016 1.05333 179.056 0.76H179.516C179.503 1.01333 179.483 1.32 179.456 1.68C179.443 2.02667 179.429 2.48667 179.416 3.06C179.416 3.63333 179.416 4.38667 179.416 5.32H178.956C178.903 4.62667 178.743 3.95333 178.476 3.3C178.209 2.64667 177.829 2.11333 177.336 1.7C176.856 1.27333 176.263 1.06 175.556 1.06C174.916 1.06 174.389 1.24 173.976 1.6C173.563 1.96 173.356 2.46 173.356 3.1C173.356 3.63333 173.489 4.09333 173.756 4.48C174.023 4.85333 174.409 5.22 174.916 5.58C175.436 5.94 176.063 6.37333 176.796 6.88C177.436 7.29333 178.009 7.70667 178.516 8.12C179.023 8.53333 179.429 9 179.736 9.52C180.043 10.04 180.196 10.66 180.196 11.38C180.196 12.26 179.963 12.9867 179.496 13.56C179.043 14.1333 178.443 14.5667 177.696 14.86C176.949 15.14 176.129 15.28 175.236 15.28C174.409 15.28 173.749 15.2 173.256 15.04C172.763 14.88 172.349 14.7133 172.016 14.54C171.723 14.3533 171.496 14.26 171.336 14.26C171.203 14.26 171.103 14.3333 171.036 14.48C170.983 14.6267 170.936 14.8467 170.896 15.14H170.436C170.463 14.82 170.476 14.4467 170.476 14.02C170.489 13.5933 170.496 13.04 170.496 12.36C170.509 11.6667 170.516 10.7933 170.516 9.74H170.976C171.029 10.62 171.176 11.4467 171.416 12.22C171.669 12.98 172.049 13.5933 172.556 14.06C173.076 14.5267 173.763 14.76 174.616 14.76C175.083 14.76 175.496 14.68 175.856 14.52C176.229 14.3467 176.529 14.0933 176.756 13.76C176.983 13.4267 177.096 13.0133 177.096 12.52C177.096 11.96 176.963 11.4733 176.696 11.06C176.443 10.6467 176.089 10.26 175.636 9.9C175.196 9.54 174.683 9.17333 174.096 8.8C173.469 8.38667 172.883 7.97333 172.336 7.56C171.789 7.14667 171.349 6.67333 171.016 6.14C170.696 5.60667 170.536 4.97333 170.536 4.24C170.536 3.4 170.743 2.71333 171.156 2.18C171.583 1.63333 172.136 1.23333 172.816 0.979999C173.509 0.713333 174.243 0.58 175.016 0.58Z" fill="#C4A35A"/>
</svg>
