<svg width="34" height="34" viewBox="0 0 34 34" fill="none" xmlns="http://www.w3.org/2000/svg">
<path d="M2.83331 5.65675C2.83591 5.2847 2.98476 4.92861 3.24771 4.66539C3.51066 4.40218 3.8666 4.25297 4.23865 4.25H29.7613C30.5376 4.25 31.1666 4.88042 31.1666 5.65675V28.3432C31.1641 28.7153 31.0152 29.0714 30.7523 29.3346C30.4893 29.5978 30.1334 29.747 29.7613 29.75H4.23865C3.8658 29.7496 3.50835 29.6012 3.24484 29.3375C2.98133 29.0737 2.83331 28.7161 2.83331 28.3432V5.65675ZM5.66665 7.08333V26.9167H28.3333V7.08333H5.66665ZM15.0478 11.9212L21.9597 16.5282C22.0375 16.58 22.1012 16.6501 22.1453 16.7324C22.1894 16.8147 22.2125 16.9066 22.2125 17C22.2125 17.0934 22.1894 17.1853 22.1453 17.2676C22.1012 17.3499 22.0375 17.42 21.9597 17.4718L15.0464 22.0787C14.9612 22.1353 14.8622 22.1676 14.76 22.1725C14.6579 22.1773 14.5563 22.1544 14.4661 22.1062C14.376 22.0579 14.3005 21.9862 14.2478 21.8986C14.195 21.811 14.167 21.7107 14.1666 21.6084V12.3916C14.1668 12.2891 14.1948 12.1886 14.2476 12.1007C14.3004 12.0129 14.3761 11.941 14.4665 11.8927C14.5569 11.8445 14.6587 11.8216 14.7611 11.8266C14.8635 11.8317 14.9626 11.8644 15.0478 11.9212Z" fill="black"/>
</svg>
