<svg width="37" height="38" viewBox="0 0 37 38" fill="none" xmlns="http://www.w3.org/2000/svg">
<path d="M30.3336 31.6119C29.5786 32.4211 28.7581 33.1536 27.8723 33.8095H37V37.1905H17.6957C7.92283 37.1905 0 28.8649 0 18.5952C0 8.3256 7.92283 0 17.6957 0C27.4685 0 35.3913 8.3256 35.3913 18.5952C35.3913 23.6633 33.4609 28.2597 30.3336 31.6119ZM17.6957 6.76191C16.8423 6.76191 16.024 7.11811 15.4206 7.75216C14.8172 8.38622 14.4783 9.24617 14.4783 10.1429C14.4783 11.0395 14.8172 11.8995 15.4206 12.5336C16.024 13.1676 16.8423 13.5238 17.6957 13.5238C18.549 13.5238 19.3673 13.1676 19.9707 12.5336C20.5741 11.8995 20.913 11.0395 20.913 10.1429C20.913 9.24617 20.5741 8.38622 19.9707 7.75216C19.3673 7.11811 18.549 6.76191 17.6957 6.76191ZM25.7391 15.2143C24.8858 15.2143 24.0675 15.5705 23.4641 16.2045C22.8607 16.8386 22.5217 17.6986 22.5217 18.5952C22.5217 19.4919 22.8607 20.3519 23.4641 20.9859C24.0675 21.62 24.8858 21.9762 25.7391 21.9762C26.5924 21.9762 27.4108 21.62 28.0142 20.9859C28.6175 20.3519 28.9565 19.4919 28.9565 18.5952C28.9565 17.6986 28.6175 16.8386 28.0142 16.2045C27.4108 15.5705 26.5924 15.2143 25.7391 15.2143ZM6.43478 18.5952C6.43478 19.4919 6.77376 20.3519 7.37714 20.9859C7.98051 21.62 8.79887 21.9762 9.65217 21.9762C10.5055 21.9762 11.3238 21.62 11.9272 20.9859C12.5306 20.3519 12.8696 19.4919 12.8696 18.5952C12.8696 17.6986 12.5306 16.8386 11.9272 16.2045C11.3238 15.5705 10.5055 15.2143 9.65217 15.2143C8.79887 15.2143 7.98051 15.5705 7.37714 16.2045C6.77376 16.8386 6.43478 17.6986 6.43478 18.5952ZM17.6957 23.6667C16.8423 23.6667 16.024 24.0229 15.4206 24.6569C14.8172 25.291 14.4783 26.1509 14.4783 27.0476C14.4783 27.9443 14.8172 28.8043 15.4206 29.4383C16.024 30.0724 16.8423 30.4286 17.6957 30.4286C18.549 30.4286 19.3673 30.0724 19.9707 29.4383C20.5741 28.8043 20.913 27.9443 20.913 27.0476C20.913 26.1509 20.5741 25.291 19.9707 24.6569C19.3673 24.0229 18.549 23.6667 17.6957 23.6667Z" fill="#C4A35A"/>
</svg>
